<?xml version="1.0" encoding="UTF-8"?>
<svg id="Layer_2" data-name="Layer 2" xmlns="http://www.w3.org/2000/svg" viewBox="0 0 202.1 202.1">
  <defs>
    <style>
      .cls-1 {
        fill: #649e43;
      }

      .cls-2 {
        fill: #fff;
      }

      .cls-3 {
        fill: #2e6b44;
      }
    </style>
  </defs>
  <g id="Layer_1-2" data-name="Layer 1">
    <circle class="cls-3" cx="101.05" cy="101.05" r="101.05"/>
    <polygon class="cls-1" points="169.02 72.71 117.78 72.71 117.78 44.58 32.4 44.58 32.4 77.91 20.4 86.48 32.4 95.5 32.4 129.03 83.64 129.03 83.64 156.77 169.02 156.77 169.02 117.34 164.94 114.48 169.02 111.76 169.02 72.71"/>
    <polygon class="cls-2" points="155.69 114.37 163.78 108.96 163.78 77.94 88.87 77.94 88.87 95.69 141.15 95.69 141.15 106.05 122.95 106.05 122.95 123.79 141.15 123.79 141.15 133.72 88.87 133.72 88.87 151.53 163.78 151.53 163.78 120.06 155.69 114.37"/>
    <polygon class="cls-2" points="112.54 67.57 112.54 49.82 37.63 49.82 37.63 80.6 29.25 86.59 37.63 92.89 37.63 123.79 112.54 123.79 112.54 105.98 60.27 105.98 60.27 95.71 78.47 95.71 78.47 78.28 60.27 78.28 60.27 67.57 112.54 67.57"/>
  </g>
</svg>