<?xml version="1.0" encoding="UTF-8"?>
<svg id="Layer_2" data-name="Layer 2" xmlns="http://www.w3.org/2000/svg" viewBox="0 0 733.36 694.43">
  <defs>
    <style>
      .cls-1 {
        fill: #4b9963;
      }

      .cls-2 {
        fill: #368e55;
      }

      .cls-3 {
        fill: #18592c;
      }

      .cls-4 {
        fill: #0c3819;
      }

      .cls-5 {
        fill: #0b702a;
      }
    </style>
  </defs>
  <g id="Layer_1-2" data-name="Layer 1">
    <path class="cls-2" d="M623.96,493.86l-1.51-2.91c-.87-1.69-6.37-.15-6.62-1.25l-.62-2.72-.63-3.52c-.14-.76-2.03-1.11-3.02-1.42l-2.09-9.23c-.2-.88-.54-2.39-1.08-2.9l-3.98-3.81-2.92-5.23c-7.45-2.08-1.88-10.01-6.22-11.76l-4.4-1.78-5.62-2.09-5.62-9.55c-4.79.22-12.03-4.85-13.51-8.41l-16.15,21.89-15.07,1.13c-1.12.08-3.19,2.55-3.47,3.37l-1.61,13.4-21.05,18.76-6.17-6.2c-1.49-3.71-6.25-6.33-8.37-11.48l-15.53.43v-6.3c-5.44-.48-4.93-5.74-9.88-5.26l-5.51-8.47,2.23-.96c.41-.18.19-1.78-.25-1.83l-1.84-.19c-2.77-.29-6.34,0-9.45-.71-1.21-.27-3.24.03-5.06.17l5.11-5.56,7.27-7.68-10.75-12.72-40.69.88-.92-10.1-10.07.64-14.87.57.03,14.05-11.86-.23-1.32,6.27-1.5,8.94c-.52,3.09-.2,7.23-1.43,9.79l2.19,5.1-39.65.43c.59,6.76.19,12.94-.35,19.01,2.36,4.55-4.08,8.65,1.57,11.66,5.67,3.02,3.37,10.2,5.39,13.29l3.33,5.09c1.14,1.74,2.71,3.64,3.22,5.66l1.64,6.54,3.78,3.75,2.09,2.07c.46.46-.07,1.88-.42,3.25l3.9,1.53.22,8.2,3.79,7.85c1.41.83,3.08,2.16,4.25,3.99,1.52.71,4.45,1.72,6.01,1.78l4.96,7.21c.87,2.24,1.99,3.43,4.25,4.3l2.31,5.58c1.05,2.53,1.6,5.54,3.51,6.98,5.15,3.91,6.15,7.34,10.17,8.15,10.1,2.05,8.6,5.99,11.84,12.02l-.37,7.01c-.05.97-.87,3.05-.65,3.91.44,1.78,6.41,2.89,4.49,17.82l4.17,5.71,3.16,3.81c2.07,2.49,3.76,5.11,5.03,8.39l2.34,6.03,2.64,7.63c2.31,1.95,5.43,4.62,3.42,8.15,3.76.24,6.35.74,9.67,1.42l6.88,1.41c1.18.24,3.65,1.83,4.59,2.64l3.91,3.38c3.69.17,7.1,1.14,10.6,1.99,2.78.67,3.8,1.69,6.37,2.99l5.22,2.64c1.91.97,2.83,2.03,4.34,3.95l26.36.27,6.2,1.43c5.08-.8,5.28,4.69,12.32,8.18l4.73,2.35c.57-2.15,1.34-3.71,2.71-4.83.75-2.99,2.61-4.97,5.81-6.52-3.17-1.59-4.53-3.58-5.1-6.36l-2.28-2.85c2.41-9.92-7.28-10.19-8.37-16.96,1.59-1.86,3.05-5.13,2.45-6.8-.23-.64-2.11-1.23-2.69-1.19,1.03-3.7.38-9.4-2.67-12.75-1.34-1.47-5.02-1.39-3.64-5.11,1.54-4.15-2.06-7.32-.25-9.38.58-.66,2.43-.98,3.82-1.24-.83-2.94-.78-5.99,1.68-7.3.31-6.58,1.98-12.75,4.14-18.9.91-5.37,2.77-9.98,4.38-15.21l.7-2.27c.37-1.2-6.98-1.71-7.37-6.71-.25-3.2,2.01-5.27,4.66-6.54,3.02-1.45,4.98-1.56,7.92,1.3l7.55-13.49,1.06-5.74.8-1.24-.65-1.39c-.27-.58-4.51.29-5.99-3.32l17.14-3.35,1.18-8.35c.43-1.04,2.62-2.32,3.71-2.31,1.18.01,3.56.9,3.84,1.94l.8,2.95c.17.63,2.54.35,3.12,0l9.52-5.8c-2.85-2.21-5.04-4.32-6.52-7.47l15.88-9.5,5.62,4.09,11.54-4.6,2.19-2.28,8.69-3.56,5.88-1.12c2.07-.39,3.41-1.49,4.72-2.32l-3.38-4.08Z"/>
    <path class="cls-5" d="M427.55,367.42l30.64-1.09c-2.19-1.58-2.22-4.07-2.71-5.76-1.81-2.18-.07-6.28-1.75-5.17l-1.93,1.28c-.29-.18-1.34-1.27-1.18-1.82l.81-2.7c-1.5-1.39-2.48-2.83-2.54-5.33l-3.56-1.63,1.73-2.44c-.97-.14-2.87-.32-2.83-.88l.17-2.84-3.48,1.86.16-3.9c.02-.62-1.92-.84-2.24-.33l-1.29,2.04c-.27-.56-.55-2.01-1.14-2.09l-2.95-.41c-3.15-3.8-8,.8-8.81-4.6l11.62-9.49.82-4.94,7.06-1.5-1.98-1.45-13.94-23.2-73.53,1.35h-51.11s.16-19.07.16-19.07l-.7-1.47.2-8.17-102.59-.66-1.08,35.37-104.48-2.86-19.48-.45-74.19-3.5-1.39,6.19c-.33,1.46,2.72,3.64,4.11,4.26l1.97,3.48c8.23-.81,8.91,6.65,12.48,13.15l3.24,5.89c1.17,2.13,5.58,5,7.95,5.53,3.95.89,6.43,2.75,7.85,6.1,5.62,3.73,6.2,9.95,14.92,14.2,3.11,1.51,3.33,5.09,4.99,7.25,2.37,3.1,5.76,5.74,8.43,8.72,5.18,5.78,12.4,4.23,18.27,12.57l4.48,1.81c1.15,2.39,1.89,3.14,3.01,4.36,4.12,4.51,2.45,11.22,5.8,16.32l3.27,4.98c2.71,4.11,4.38,7.47,3.91,12.69-.33,3.75-1.07,9.29.8,12.62,3.28,5.84,6.35,10.92,7.43,17.3l8.98,6.96c2.63,2.04,7.57,1.88,8.84,5.9.86,2.72,2.63,4.32,4.86,5.93,2.89,2.09,5.47,4.2,9.08,5.01l10.38,2.34c2.19,8.67,10.58,5.55,13.56,8.41l7.48,7.18,3.92-.46c.83-.1,1.81,1.97,2.45,2.79l7.73,1.55c.66-4.04,2.56-7.01,5.71-8.66l2.01-4.26,4.57-1.4c.43-9.63,4.19-9.81,4.65-13.28.9-6.84,4.5-12.36,7.99-18.06l1.23-3.14c.33-.83,2.7-.76,3.78-1.11,2.83-.92,6.27-2.77,9.02-2.6l4.39.27c.8-2.64,1.66-4.69,2.95-5.63,2.36-1.71,9.39.41,12.98,3.98,2.21,2.2,6.3-.6,8.38-.32,2.67.36,4.57.87,7.04.56,1.38-.17,3.13-.27,4.06-.11,2.16,1.95,7.26,3.36,10.01,1.5l2.75-1.85c.62-.42,2.21.72,3.08,1.43,1.94-.22,6.48.52,7.24,2.32.58,2.88,1.48,4.7,3.62,5.96l5.57,3.25.34,5.39,4.89,2.92c7.33,1.65,5.7,5.69,8.63,7.83l6.99,5.09c1.18.86,3.37,2.24,4.25,1.98l3.79-2.22c.55-6.07.94-12.25.35-19.01l39.65-.43-2.19-5.1c1.22-2.55.91-6.69,1.43-9.79l1.5-8.94,1.32-6.27,11.86.23-.03-14.05,14.87-.57,10.07-.64-.43-13.88,19.31-.36-.3-28.22Z"/>
    <path class="cls-2" d="M557.16,536.29c-.38,2.71-.81,3.52-3.04,5.61s-4.48,3.67-7.46,2.45l-.65-1.39c-.27-.58-4.51.29-5.99-3.32l17.14-3.35Z"/>
    <path class="cls-1" d="M454.93,231.8l27.04-.87-.94-28.64,23.87-1.53-1.06-27.17-.22-5.69c-2.39,1.52-5.65,2.38-6.4.88l-2.8-5.56-4.87,5.3c-1.52,1.65-4.39,5.86-7.23,4.73l-7.04-2.79c-.26-1.68.26-4.61.65-6.31-1.44.24-5.37.18-6.26-1.12-1.21-1.77-2.15-4.52-2.78-6.35l-11.26-2.15c-.88,3.28-3.95,6.52-7.91,5.56l-6.12-6.37c-8.24,5.62-8.48.8-14,1.27-1.21-.69-3.81-3.01-5.43-3.08l-12.71-.49-1.27-5.11c-.98-3.93-2.77-7.99-6.92-8.69-.79,1.25-1.85,3.16-2.9,3.24-1.09.08-3.44-.68-4.41-1.13l-2.82-1.32c-.61-.28-1.6,1.76-2.21,2.15-2.77,1.79-6.9.47-9.12-1.77l-4.11-4.15-5.98-6.66-4.45.29L363.24.09l-63.35.4-93.49-.49-2.16,133.83.09,11.4-3.68,117.77,102.59.66-.2,8.17.7,1.47-.16,19.06h51.11s73.53-1.34,73.53-1.34l13.94,23.2,1.98,1.45,7.14-1.3c.72-.13,2.59,1.5,3.1,1.94l15.88-10.24-2.66-4.97-1.86-3.47-4.46,2.16-12.74-20.14,3.89-3.06-.71-14.51-5.38-.11-.65-26.64,8.32-.22.93-3.31Z"/>
    <path class="cls-3" d="M723.32,326.23c.9-2.3-.02-4.11-1.39-5.96l-4.26-5.78c-1.19-1.61-4.93-3.79-4.39-6.34,1.68-7.98-1.38-13.16-6.83-18.32l-6.63-6.27-3.82-45.41-4.65-57.13c-2.66-.41-5.76-.25-8.42.21l-8.84,1.51c-3.11-2.69-6.76-4.35-10.74-5.26l-4.8-1.81-5.49-1.78c-1.95-2.22-3.5-2.53-6.73-2.49l-5.42-4.95c-1.29-1.18-2.55-1.97-4.14-2.82l-4.92-2.6-4.63-2.45c-.29,1.82-.57,3.75-1.34,4.47s-2.94,1.66-4.04,1.72l-9.99.53c-2.21.12-3.61-.72-4.96-3.1-5.83,1.76-8.18,6.24-14.28,6.56-.09-1.82-3.04-1.74-4.81-1.21l-9.38,2.82c-.48,1.36-1.35,3.91-2.41,4.61-1.24.82-3.47.63-5.58.28.51,2.31-2.26,6.2-4.82,4.64l-4.35-5.57c-1.44.26-3.33.9-3.92.34l-2.11-1.97-6.32-3.48c-.69.97-2.89,2.82-4.24,2.97-1.14.13-3.02-1.47-3.87-2.32l-3.29.78c-.71.17-1.59-1.61-1.96-2.24l-2.45-4.27c-.52,2.69-.73,3.69-.66,4.97l-5.3,5.91c-.14,1.44-.18,3.99-.98,4.81-.94.95-4.09.99-5.11.09-2.83-2.47-3.68-5.65-3.15-8.9l-4.51.1c-1.2,1.45-2.68,3.4-4.01,3.55-1.65.2-4.13-.5-5.56-1.09l1.06,27.17-23.87,1.53.94,28.64-27.04.87-.93,3.31-8.32.22.65,26.64,5.38.11.71,14.51-3.89,3.06,12.74,20.14,4.46-2.16,1.86,3.47,2.66,4.97-15.88,10.24c-.52-.45-2.39-2.07-3.1-1.94l-7.14,1.3-7.06,1.5-.82,4.94-11.62,9.49c.81,5.4,5.66.8,8.81,4.6l2.95.41c.59.08.87,1.54,1.14,2.09l1.29-2.04c.32-.51,2.27-.29,2.24.33l-.16,3.9,3.48-1.86-.17,2.84c-.03.56,1.86.73,2.83.88l-1.73,2.44,3.56,1.63c.07,2.51,1.05,3.94,2.54,5.33l-.81,2.7c-.17.55.89,1.65,1.18,1.82l1.93-1.28c1.68-1.11-.06,2.99,1.75,5.17l31.09-2.58,5.27,8.34,12.49,2.66,17.08,6.47,2.08-7.58,23.31-15.58,28.29-19.02,29.28-18.81c.43.28,1.24.91,1.24.81l-.02-1.93,1.92-1.68c1.13,1.76,1.97,3.38,1.88,4.51-.11,1.4-1.35,3.17-2.23,4.07,2.16,2.63,3.99-.63,5.56-1l20.13-4.67c4.7,1.83,6.83-1.54,8.85,1.76l2.94,4.78c3.87,1.68,7.27,4.28,8.6,8.26,2.12.46,3.18,1.92,3.84,4.07l2.52,8.12c5.77,4.5,12.45,1.63,16.97,5.7l5.73,1.27,21.49-7.44,6.17-2.67,18.51-3.4c.14-5.95-6.29-5.95-5.16-8.81Z"/>
    <path class="cls-4" d="M731.08,345.85l2.28-3.45-1.74-2.32c-.39-.52.28-2.02.58-3.03l-3.71-2.01-18.51,3.4-6.17,2.67-21.49,7.44-5.73-1.27c-4.52-4.07-11.2-1.2-16.97-5.7l-2.52-8.12c-.67-2.15-1.73-3.61-3.84-4.07-1.33-3.98-4.73-6.59-8.6-8.26l-2.94-4.78c-2.03-3.3-4.15.07-8.85-1.76l-20.13,4.67c-1.57.36-3.4,3.63-5.56,1,.88-.89,2.12-2.66,2.23-4.07.09-1.13-.75-2.75-1.88-4.51l-1.92,1.68.02,1.93c0,.09-.8-.53-1.24-.81l-29.28,18.81-28.29,19.02-23.31,15.58-2.08,7.58-17.08-6.47-12.49-2.66-5.27-8.34-31.09,2.58c.49,1.69.52,4.18,2.71,5.76l-30.64,1.09.3,28.22-19.31.36.43,13.88.92,10.1,40.69-.88,10.75,12.72-7.27,7.68-5.11,5.56c1.82-.14,3.85-.44,5.06-.17,3.11.7,6.67.42,9.45.71l1.84.19c.44.05.66,1.65.25,1.83l-2.23.96,5.51,8.47c4.95-.49,4.44,4.77,9.88,5.26v6.3s15.52-.43,15.52-.43c2.12,5.15,6.88,7.77,8.37,11.48l6.17,6.2,21.05-18.76,1.61-13.4c.28-.82,2.36-3.28,3.47-3.37l15.07-1.13,16.15-21.89c1.47,3.56,8.72,8.63,13.51,8.41l5.62,9.55,5.62,2.09,4.4,1.78c4.34,1.75-1.23,9.68,6.22,11.76l2.92,5.23,3.98,3.81c.54.51.88,2.02,1.08,2.9l2.09,9.23c.99.31,2.89.66,3.02,1.42l.63,3.52.62,2.72c.25,1.09,5.75-.44,6.62,1.25l1.51,2.91,3.38,4.08,11.42-7.22c3.25-2.06,7.31-4.49,7.52-8.55-1.05-.73-2.4-1.68-2.83-2.38-1.62-2.61,5.25-2.54,6.42-5.97-2.27-1.33-3.99-2.86-2.93-5.13,3.59-.71,7.15,2.36,9.82.03.93-.81,1.34-2.8,1.49-4.48l3.81-3.37,1.84-.95c.36-.19.22-1.35.12-1.8-1.25-.52-3.32-1.6-4.27-2.59-.85-.88-.89-2.98-1.05-4.54l-2.18-2.27c-.59-.62.2-2.86.3-3.76-1.64-4.28,1.06-8.92,3.58-9.68.95-.28,2.65,1.24,3.7,2.44.69-3.14,2.21-5.55,5.32-7.34,2.13-1.22,6-2.61,7.75,1,1.75,3.62-.26,9.75-1.24,13.59l8.59-2.75,5.19,1.4c1.43.38,3.42.17,4.78-.52l18.6-9.45,9.21-.83-4.47-5.38c-.95-1.15.55-4.1,1.87-4.96,5.23-3.42,2.39-7.59,7.34-12.51l1.47-7.13-1.41-7.84c-.27-1.5-3.19-3.62-3.16-5.16.15-6.42,4.35-3.94.87-12.59-.55-1.37.98-4.3,1.69-5.73l2.94-5.89,3.01-8.46c-.3-2.57-.14-5.11.51-7.57-.69-.66-2.4-2.94-1.87-3.75Z"/>
  </g>
</svg>