<?xml version="1.0" encoding="UTF-8"?>
<svg id="Layer_2" data-name="Layer 2" xmlns="http://www.w3.org/2000/svg" viewBox="0 0 941.76 907.17">
  <defs>
    <style>
      .cls-1 {
        fill: #2b5434;
      }

      .cls-1, .cls-2, .cls-3, .cls-4, .cls-5, .cls-6, .cls-7, .cls-8 {
        fill-rule: evenodd;
      }

      .cls-9 {
        fill: none;
      }

      .cls-2 {
        fill: #598e64;
      }

      .cls-3 {
        fill: #31623d;
      }

      .cls-4 {
        fill: #034411;
      }

      .cls-5 {
        fill: #5b8764;
      }

      .cls-6 {
        fill: #65b776;
      }

      .cls-7 {
        fill: #54725a;
      }

      .cls-8 {
        fill: #115620;
      }
    </style>
  </defs>
  <g id="Layer_1-2" data-name="Layer 1">
    <path class="cls-7" d="M867.07,461.62c-.95-2.6-1.22-6.24-2.56-8.76-2.65-1.95-3.51-5.24-5.69-7.88-2.35-6.24-3.33-14.65-10.32-17.95-7.47-8.02-20.65-4.73-31.29-5.5-9.1.86-3.53-14.17-12.97-13.24-18.92,1.96-37.87-5.22-24.74,22.06,1.62,2.68.6,5.49-2.43,6.62-5.57,1.62-6.98-6.92-11.43-8.18-10.08-1.8-21.42,1.52-31.33,4.72-2.85.36-.07-5.92-3.61-6.93-8.81,2.9-25.99,14.79-33.39,18.4-7.06,7.2,5.14,29.6,7.35,38.51,2.51,8.35-.21,17.76,4.38,25.73,2.59,6.5-2.34,5.75,2.13,13.86,0,3.67-4.32,6.72-3.76,10.14,1.53,4.71,5.21,8.55,3.57,13.95-1.15,7.4,7.8,9.61,5.22,16.63.06,1.71.77,3.45-.23,5.04-1.13,1.92-.15,3.78-.06,6.25-.46,3.45,1.67,5.88,4.25,7.9,2.26,2.36,3.49,5.41,5.88,7.62,3.28,3.28,2.57,8.31,4.34,12.35.74,1.76,2.05,3.11,2.76,4.53,1.03,1.87,1,4.35,2.77,5.76,11.1,2.99,10.16,12.85,17.29,9.77,11.7-3.13,18-14.61,27.23-21.54,5.9-4.12,13.81-9.49,19.93-13.84,3.82-2.78-.78-5.11,3.19-7.64,13.79-10.38,28.55-17.36,45.98-20.03,1.86-.14,4.1.13,3.81-2.16-.3-3.17-3.69-4.69-5.02-7.19-2.56-10.79,12.74-15.25,11.89-25.78-.48-3.85-.63-8.08-3.14-11.25-2.73-4.82,3.4-6.5.74-15.31,1.1-7.95,7.51-14.57,8.11-22.83.89-4.78-.16-9.24,1.16-13.83ZM808.34,410.84v.17l-.16-.16h.16ZM702.22,474.17c-.22-.03-1.55.68-.57-.2.16-.11.22-.32.3-.03.09.05.25.07.3.17l-.02.06Z"/>
    <path class="cls-2" d="M715.7,340.75c.36-4.12,1.69-5.37,5.57-5.84,1.48-6.23-.62-23.26-.3-32.15-.08-4.83-.6-20.36-.71-25.83-.19-.88.44-1.53.93-2.02.42-.5-1.48-2.05-2.34-2.56-3.61-3.41-7.48.07-11.45.93-2.91.23-6.38.94-7,4.18-.35,4.14-4.79,1.38-6.9,3.58-1.35,1.52-2.62,4.39-4.28,1.37-2.65-4.05-8.26-4.21-12.26-7.03-1.19-.77-.43-2.2-.76-3.28-.35-1.12-3.93-1.63-5.18-.86-1.54,1.03-1.65,4.85-4.26,3.87-4.66-3.08-5.59.66-8.74-4.9-1.3-2.17-4.08-4.23-5.05-.8-.78,7.99-5.71,3.47-5.98,10.3-.51,3.84-1.69,4.56-4.04.73-.97-2.78.24-6.15-2.12-8.64-1.38-1.95-2.89.78-4.37,1.39-5.14.03-3.57,1.94-7.2,3.64-3.07.59-2.74-4.3-4.53-5.68-3.29-4.21-.01,31.64-.89,32.94-4.75,1.59-14.4.41-19.96,1.01-2.16.37-5.44-.84-5.23,1.43.02,4.36.31,24.01.27,27.87-.44,1.76-3.29.82-4.72,1.04-7.37.39-18.56-.78-24.44.55-.85,6.49-9.09.95-9.18,4.97.06,5.04.25,25.19.33,29.5.4,2.79,6.1-.27,6.56,2.86.12,3.23.41,8.39,0,11.7-.36,2.24-4.94,2.61-3.5,5.11,2.29,3.81,10.39,17.25,12.58,20.86,1.14,2.01,2.94-.7,4.94-.33,1.83.12,2.32,3.51,4.23,2.51,7.58-4.22,20.47-12.87,28.81-18.41,5.53-4.12,4.21.37,8.82,1.79,2.51.79,3.45-1.93,5.27-2.82,5.23-1.76,14.99-4.82,21.11-5.91,2.25,1,8.57,16.85,10.76,13.78,5.57-3.47,23.67-15,30.18-18.8,2.24-1.08.43-2.49,1.45-2.98,5.84-.4,11.67-.09,17.33-.72,3.25.81-.53-29.18.22-32.59.69-1.72,4.3-.7,6.05-1.19,5.1-.98-.59-2.28-.03-4.56Z"/>
    <path class="cls-3" d="M575.28,479.41c-2.46-3.6.38-12.63-5.57-12.29.67-6.15-3.17-3.02-4.04-11.94-1.13-3.45-4.09-4.67-6.79-5.52-1.36-7.24-3.16-.15-15.86-5.89-2.51-1.35.68-2.94,1.79-3.98,2.93-2.33,11.53-9.07,14.14-11.15,1.97-1.18.24-2.41-.48-3.94-3.57-5.98-12.26-20.64-14.07-23.62.39-2.01-16.92-.35-19.02-.83-38.39,1.28-84.34-2.33-121.68.2-.26,15.98-1.57,69.14-1.57,69.14,0,0-59.51-.97-65.54-1.83-2.05-.82-3.73.69-.85,2.64,2.91,1.91,6.34,2,9.36,3.77,4.5,2.43,10.53.8,14.71,3.81,9.41,5.29,4.36,21.47,16.09,23.54,3.01,2.32,1.14,7.24-1.25,9.24-5.01,2.98,1.04,7.64.08,9.37-2.01,1.64-4.75,3.91-4.26,6.82.09,7.57-.04,35.79-.04,35.79l12.52-1.65s8.36,3.46,11.37,8.1c1.07,1.65,2.96,2.77,3.7,4.85,1.38,2.57,1.87-.56,2.79-.43.74.79-.47,5.64,1.11,6.79,4.63,3.42,16.77,11.92,22.63,16.17,9.21,6.17,8.1,2.37,10.55-5.77,2.47-4.74.24-12.11,1.79-17.36,59.39-2.71,33.63,11.21,43.45-28.74.64-2.82,2.45-3.46,4.96-3.03,14.01,1.72,6.67-5.56,9.09-14.73,5.17-1.16,21.01.45,26.7-.46,2.19-19.29-6.57-13.59,19.23-14.68,2.94.13.98-3.89,1.46-7.8-.03-5.38-.18-13.45-.22-18.52.15-1.57-.55-2.76,1.05-2.8,4.21-.17,27.12-.92,32.11-1.14,1.31-.03,1.01-1.42.56-2.16Z"/>
    <path class="cls-8" d="M848.18,422.34c.89-12.68-9.57-17.6-15.25-26.33-3.7-36.34-2.49-70.91-6.57-107.61-6.78-6.62-18.34,4.41-24.48-3.92-4.17-2.02-8.95-3.94-13.61-4.88-2.88-1.94-5.54-3.83-9.19-3.64-3-.71-4.01-4.43-6.75-5.74-4.97-2.43-10.17-7.53-16.13-6.62-13.45,11.6-14.44,1.53-23.84,2.67-5.57,2.63-15.4,4.2-14.62,12.31.69,14.3.16,30.45.97,45.01-.29,2.87,1.29,6.88-.97,9.08-4.02,1.34-5.29,5.52-5.6,9.35-.72,3.07-5.34.93-4.85,5.33-.45,33.97,9.27,30.01-18.7,30.68-1.83.07-3.32.34-2.88,1.55.74,1.69,3.78,2.66,5.62,3.27,19.24,11.06,15.7,19.4,24.93,35.85,5.42,3.36,8.84,9.87,14.52,12.42.43.98-.93,3.54-.43,5.36,1.76,4.41,7.87-1.1,10.9-1.38,7.93-1.28,16.26-4.79,24.17-1.68,3,1.77,3.29,6.04,6.83,7.27,1.99,1.1,3.53,1.76,5.23.46,14.44-10.31-1.41-10.43,2.17-25.66-.66-5.72,19.6-3.2,24.2-4.14,8.26.8,1.61,14.68,11.76,13.37,5.88.31,15.17.85,21.64,1.2,4.42.16,10.05,3.08,10.91-3.57ZM835.27,402.82h-.02s0,0,0,0l.02-.02h0ZM806.42,289.91l.03-.12.08.68-.5-.17.39-.39h0ZM805.84,290.46l-.04.04h-.05s.09-.04.09-.04ZM735.58,267.46l-.14-.1.14-.55v.65h0ZM781.12,428.99h.32l-.32.18v-.18h0Z"/>
    <path class="cls-4" d="M647.17,675.13c-3.84-3.51-8.6-1.3-13.52-5.17-.64-3.21,11.36-13.54,5.16-14.76-5.92-2.82-7.06-2.7-9.95-8.46-1.53-.9-5.35-.21-6.96-1.65-3.36-5.91-4.28-8.89-11.58-10.33-4.08-2.99-5.49.53-9.22-.48-3.11-1.92-4.74-5.01-7.34-7.59-.85-1.29-2.97-2.62-2.89-4.17,3.56-3.62,17.42-15.05,24.68-21.5,1.06-1.04,3.06-2.03,1.92-3.11-13.11-13.04.39-10.79-20.74-10.16-5.74.7-1.62-5.45-4.56-7.71-5.22-4.16-14.85-7.17-12.95-15.46-1.08-3.99-6.74-1.39-9.72-2.33-7.95-2.26-19.97,5.75-24.96-3.67-.66-2.61.93-23.35-1.4-23.41-4.08-.15-16.36.36-20.47.29-3.27-.17-1.08-6.99-1.85-9.16-.13-1.1-.5-1.32-1.46-1.36-4.98.27-21.82-.67-27.1.05-2.73,12.22,5.29,16.59-11.8,14.57-3.62,1.78-2.77,7.37-3.81,11.13-2.27,4.63-.43,9.82-2.35,14.53-.62,2.91,3.42,5.87-2.28,5.9-6.86-.38-29.14.08-36.3-.09-1.67-.03-1.57.57-1.66,2.69-.56,5.94.63,13.24-2.06,18.24-6.37,10.99-2.59,9.64,3.17,18.2,1.12,3.04,1.07,8.07,2.74,11.21,4.04,5.2,6.61,11.03,9.32,16.96,6.01,9.96,12.05,21.58,16.4,32.43,4.99,6.46,13.47,12.45,17.27,18.73,4.23,4.66,9.63,12.73,13.18,17.95,2.26,3.72,8.22,2.64,10.77,6.03,1.39,1.71.81,4.65,2.3,6.39,3.72,2.48.5,9.53-.61,12.14,2.23,6.04,7.54,4.47,5.03,13.64.06,3.95,2.2,8.53,4.43,11.78,2.68,5.88,11.54,21.04,13.65,29.09.97,1.58,2.82,2.79,3.04,4.74-.03,3.69,1.72,6.21,5.82,5.73,4.98.14,6.94,2.77,11.64,2.43,4.65.87,7.15,5.8,11.36,7.79,10.91,1.04,20.21,6.74,29.29,12.48,2.32,1.37,5.13.21,7.31.83,1.53.65,3.17.84,4.73.09,6.18-1.97,12.22.96,18.55,1.44,3.63-.43,5.5,2.54,7.56,4.96,2.96,2.34,6.65,4.61,10.04,6.56,9.62,3.46,4.32-4.05,10.09-5.34,2.11-.72,4.6-1.95,6.71-2.01.97-.09,2.17.13,2.78-.8,1.46-4.71.23-9.71-.57-14.45-2.49-10.35-4.7-20.92-8.11-30.49-1.25-12.11-3.94-36.61-4.87-45.59-.45-9.16,6.36-17.22,7.64-26.17,5.29-12.59,15.94-22.01,25.43-31.96,2.22-1.81,1-3.24-.66-4.52-8.95-5.77-21.23,3.35-30.26,2.93ZM659.49,693.77h-.02l.02-.02v.02h0Z"/>
    <path class="cls-5" d="M188.46,399.11c-26.63-2.3-76.43-6.08-101.72-6.87,8.76,16.64,30.03,43.31,42.69,59.33,1.33,2.31,2.06,5.46,4.72,6.55,8.11,2.95,12.22,11.85,15.64,19.25,5.72,7.78,10.3,6.35,17.52,10.85,1.13,1.09,1.05,2.5,2.72,3.27,3.04,1.39,5.39,4.39,8.43,6.01,2.24-.24,7.81-1.26,7.91-4.6,2.35-26.69,2.65-67.01,4.22-93.74,0,0-1.35,0-2.13-.05Z"/>
    <path class="cls-1" d="M625.37,271.22c-3.01-.1-4.59-.27-6.39-3.06-6.58-9.19-16.48,14.39-19.8,2.98.36-12.2-8.33-1.94-8.68-9.28-.05-4.19-1.51-9.2-6.52-5.59-3.56.59-9.11-1.64-12.88-1.13-2.48-.02-1.4,6.05-4.73,4.49-6.32-7.95-15.5-1.81-23.12-6.03-3.75-3.62-10.11-1.56-14.61-3.1-2.33-1.43-.54-4.57-2.19-6.73-2.42-2.19-3.04-7.27-6.69-7.09-4.38-1.98-5.68-3.6-8.22,1.67-2.51.26-2.98-2.32-6.84-.25-10.36,5.8-11.52-9.11-19.29-11.6-1.46-1.04-4.6,0-5.36-1.51-1.15-34.93,1.6-104.83-1.86-133.08-55.21.18-122.84-1.67-173.01-2.19-1.76,103.62-6.17,210.23-9.82,313.06-27.93-.6-84.62-3.23-108.69-3.72-1.97,27.93-1.31,53.4-3.71,83.08-.94,7.07,1.81,8.26-6.01,10.84-4.13,6.35,5.25.95,6.4,18.25,1.89,5.53,5.99,9.43,8.57,14.47-.31,16.55-4.5,15.32,6.36,30.43.88,10.24,10.27,16.23,18.87,20.16,5.92,9.06,14.63,16.01,25.45,18.46,4.36,4.92,10.16,9.4,16.94,9.86,6.97,7.77,25.03,19.67,31.44,5.88,2.02-1.99,3.99-5.7,6.61-7.36,1.98-1,4.46-1.67,5.74-3.68,1.35-2.35-.84-5.87,1.16-8.11,3.61-4.48,3.61-10.47,6.72-15.26,1.02-4.57,4.97-7.46,6.35-11.46,4.79-2.35,10.8-1.55,15.86-2.66,3.34-1.38,3.24-8.25,8.02-4.82,9.84,5.84,10.08,2.93,19.54,5.2,3.29-.09,11.61.56,11.61.56,0,0,.22-29.67,1.17-33.49-.73-5.57,3.61-4.21,5.18-7.68-3.27-7.86,7.46-18.36-1.92-24.22-1.19-.7-2.95-.01-3.66-1.63-2.72-10.57-4.81-22.07-17.4-22.36-2.88-.07-7.79-2.41-7.79-2.41l56.73.57s.98-50.63,1.48-69.08c34.3-.18,103.15-.95,135.46,1.27,2.9,4.56,12.03,20.41,14.34,24.02,2.55,2.23,6.92-.89,10.06,0,2.14.45,2.61,2.32,4.1,1.84,4.84-3.34,15.89-8.44,19.17-12.65-11.29-23.53-5.92,5.32-22.26-27.27-.57-1.71,1.94-2.31,2.6-4.28.67-4.47.02-10.01.06-14.42-.17-2.93-4-1.41-5.52-2.68-.96-5.37-.47-20.63-.68-25.25.81-3.39,7.13.29,8.44-3.22.39-1.12.68-2.24,2.09-2.13,5.28-.02,20.58.06,26.87-.04.85-.06.81-.77.82-1.45.15-4.35-.61-21.34-.12-28.22,6.3-1.31,17.85-.4,24.51-1.2,1.75-4.97-.61-28.35-.03-34.32.1-.71-.37-1.25-.94-1.39Z"/>
    <path class="cls-6" d="M672.48,678.22c13.46-9.72,28.22-22.41,41.81-32.02,10.15-6.35,22.56-10.98,32.23-18.06,1.68-1.69,14.33-7.97,5.07-7.47-22.72-13.6-6.74-7.08-17.69-18.17-1.13-3.88-.64-9.52-3.97-12.4-21.04-24.33.09-18.88-13.11-35.67-1.66-1.15-1.12-3.13-1.56-4.87-.92-2.86,1.16-5.4.25-8.49-.45-3.71-5.51-5.65-4.33-9.5.36-2.47,2.4-3.8,3.63-5.69,2.72-5.75-4.93-6.5-1.26-10.09,2.01-2.17,1.43-4.46-.63-6.23-3.33-6.42-2.97-13.01-3.37-20.23,1.21-7.68-5.92-13.11-5.26-20.51-2.89-6.36-10.24-21.38-.26-24.47,4.48-3.03,21.76-11.36,26.07-15.63.6-4.69-2-4.55-4.66-7.07-1.45-3.45-6.14-3.72-7.33-7.27-.43-3.09-1.37-6.18-2.56-9-3.14-2.56-2.52-7.7-5.65-10.36-.46-1.53-.31-3.57-2.28-4-1.66-1.27-1.11-3.7-3.86-4.21-3.94-1.98-7.56-8.14-12.72-6.39-7.76,4.01-23.92,16.72-31.24,18.24-3.72-2.32-5.95-11.46-10.08-13.29-6.87,1.37-17.13,4.25-23.43,6.63-1.98,2.95-4.16.87-6.28-.66-1.44-.97-2.12-.81-3.79.22-9.86,6.32-21.29,12.68-30.92,18.6-3.84,1.99,2.92,6.2-1.39,7.97-3.45,2.12-9.84,6.26-13.26,8.12-1.57.82-2.43-1.24-3.81-1.26-7.19,3.36-22.72,12.62-28.37,15.52-.83.43-1.68.97-1.74,1.96.02,3.79,4.01,3.65,6.81,4.11,3.1,1.01,5.91,3.71,9.19,2.82.44-.09.93-.09,1.1.36,1.21,5.87,3.71-.65,7.35,8.87,1.16,1.94,2.24,3.98,3.04,6.04.16,6.64,4.18,2.63,5,8.08.05,1.93,2.64,8.31-.49,7.89-37.61,2.53-28.68-10.1-29.35,28.7-.42,2.85-22.53-1.53-20.54,2.93,2,30.29-7.7,24.81,21.44,24.61,1.08-.08,1.93.15,1.89,1.36.12,3.37.31,17.01.42,21.23-.04,3.57,7.2,4.59,9.95,6.22,5.7.68,11.39-3.54,17.12-1.09,1.65.72,3.66.44,5.17.58,1.98,8.38,9.51,12.7,15.7,17.56.74,2.1-.04,6.67,2.93,7.51,14.07.29,10.85-5.19,20.74,7.03.66.89.99,1.24.37,1.94-3.22,2.88-22.52,19.45-26.17,22.66-1.02.7-.28,1.6.38,2.32,18.43,22.01,6.86,4.99,26.07,15.38,2,1.75,2.19,5.26,3.91,6.96,2.75,2.24,8.45.82,9.53,5.51,1.26,3.74,10.09,1.9,8.92,6.63-.7,2.77-9.16,13.12-6.96,14.55,2.63-.09,4.53,1.56,6.65,2.71,3.92.03,7.06.99,10.59,2.63,6.62.15,17.87,0,25-.32ZM714.89,410.2l.87-.07v-.09h.09l-.96.21v-.05h0ZM577.95,564.78h0s.03-.04.03-.04l.02.02-.04.02h0ZM719.36,577.92h.08v-.17h.27l-.35.36v-.18h0ZM714.27,553.28l-.07.02-.02-.02h.1ZM709,500.18h.12l-.1.1-.02-.1h0ZM700.44,656.41l-.16-.66h.16v.66h0Z"/>
    <rect class="cls-9" width="941.76" height="907.17"/>
  </g>
</svg>