<?xml version="1.0" encoding="UTF-8"?>
<svg id="Layer_2" data-name="Layer 2" xmlns="http://www.w3.org/2000/svg" viewBox="0 0 983.7 934.06">
  <defs>
    <style>
      .cls-1 {
        fill: #2b5434;
      }

      .cls-1, .cls-2, .cls-3, .cls-4, .cls-5, .cls-6, .cls-7, .cls-8 {
        fill-rule: evenodd;
      }

      .cls-9 {
        fill: none;
      }

      .cls-2 {
        fill: #598e64;
      }

      .cls-3, .cls-10 {
        fill: #31623d;
      }

      .cls-4 {
        fill: #034411;
      }

      .cls-5 {
        fill: #5b8764;
      }

      .cls-6 {
        fill: #65b776;
      }

      .cls-7 {
        fill: #54725a;
      }

      .cls-8 {
        fill: #115620;
      }
    </style>
  </defs>
  <g id="Layer_1-2" data-name="Layer 1">
    <polygon class="cls-3" points="365.44 479.64 365.53 479.73 365.53 479.64 365.44 479.64"/>
    <polygon class="cls-10" points="794.72 415.68 794.8 415.6 794.72 415.6 794.72 415.68"/>
    <path class="cls-7" d="M882.91,466.72l-.09-.09h-.04v-.69h-.09v-.09h-.07c.09-.06.05-.71.06-.8l-.09-.09v-.56h-.49v-.6h-.97l-.18-.17h-.2v-.94l.53-.53c-.05-.44.12-1.07.09-1.5l-.49-.58c.01-.1-.14-.38-.19-.46l.04-.04h.55v-1.48s.17-.17.17-.17v-1.16l-.09-.09v-.09l-.55-.55h-.75l-.4.4.23.23v.22h-.21v.13l-.16-.12h-.69l-.55.55v.1c-.07.08-.16.13-.25.2h-.28l-.11.2c-.25-.2-.17-1.23-.18-1.51-.13-.17-.22-.5-.17-.71l.42-.28v-1.08l-.09-.05v-.31l-.55-.55h-.63v-1.36c-.21-.32-.51-.97-.43-1.36-.39.01-1.17-.04-1.51.06-.25-.26-.39-.64-.75-.91h-.52l-.27-.27-.02-.44c-.07-.03-.82-.25-.83-.34l.49-.49v-.74l-.05-.05c.21-.24.27-.77.23-1.07.32-.18.99-.25,1.35-.21v-.89l.34-.55v-.61l-.88-.88-.5.5c-.19.02-.35.07-.49.14-.02-.47-.2-.82-.17-1.28l-.63-.63h-.09l-.09-.09h-.3l-.11-.22-.75-.45c.31-.45.64-1.08.53-1.65l-.55-.55h-.2v-.47l-.09-.09v-.55h-1.15l-.33-.33-.17.17-.3-.31v-.14c.2-.13.58-.59.77-.75v-.12h.25v-.63l.25-.07v-.37l.09-.09v-1.29h-.63l-.21-.21c-.24.1-.76.26-1.02.21v-.09h-.07l-.15-.57-.12-.04v-.39h-1.21l-.32.32-.49.02v.14c-.08-.02-.17-.04-.26-.05v-.09h-.55l-.27-.27-.03-.42h-.09v-.44h-.51v-.25h-.09v-.09h-.09v-.09h-.41v-.85h-.09v-.14l-.9-.9h-.14c-.07-.13-.31-.52-.25-.68h-.11l-.1-.19c-.12.06-.41.24-.55.19v-.34h-1.05l-.26-.26h-.25l-.23-.24.42-.42h-.58v-.14c-.1.06-.31.17-.43.14l-.56-.55v.55h-.85c-.42.46-1.53,1.05-1.82,1.63h-1.11v.17h-.09v.3l-.05.05h-.17c-.13.18-.8.65-.98.79v.14l-.19.07-6.76-3.34c-4.13-.28-12.83-.91-16.9-1.26l.12-.12h-.1l.26-.26h-.92v-.02s.5-.5.5-.5h-.91v-.03l.11-.11-.33-.33v-.12h-.09v-.52h-.09v-.17h-.08l.16-.17-.25-.25v-.37h-.25v-.35h-.09v-.16l1.11-1.12h-.51l.51-.52h-1.11v-.84h-.09v-.43h-.09v-.43h-.17v-.34h-.26v-.52h-.52v-.56h.09v-.17h1.22l-.89-.88.09-.09-.43-.43.97-.97h-1.31v-.25h-.09v-.17h-.21l-.34-.34h-.21l-.32-.37-.03-.49h-.47l-.2-.2-.02-.71c-6.84.39-21.99,1.14-28.65,1.35v-.9l-.95.95h-.03s-.7-.69-.7-.69v1.89h-.17v.18h-.44v1.37h-.25v.73l-.04.04h-.09l-1.06-1.04v1.31h-.26v1.21l.09.09v.17l.09.09v.09l.09.09v.63h.17v.09h.6v.17h.59l.02.02h-.24l-.09.09h-1.67l1.11,1.12c-.02.14-.16.36-.25.46v1.21h.34v.17h.34v1.35l-.5.51.42.42v.07l.11.18h-.55l.7.71-.62.62h.94v.78h.34v.83s-.07.08-.07.08v1.21h.09v.7l.53-.53h.16v.58h.48l.03.13.17.17v.07h-.87l1.22,1.21v.49l.17.09-.46.51.46.3v.19h.25l.09.13v.33c.22.06.66.22.81.4h.38l-.88.02.88.88v.28h.25v.17h.17v.25l-.62.62h1.23l.19.19-.5.5h.48l-4.75,4.45h0s-.09,0-.09,0v-.09h-.09v-.09c-.63.03-1.56-.14-2.19-.09v.1h-.16l-.65-.64v-.46h-.43v-.51h-.25v-1.12l-1.04,1.03h-.09l-.09.09h-.67v-.29h.1v-2.02h-.17v-.11l-.17-.09v-.74h-.18v-.26h-.47l-.15-.15v-.38h-.17v-.09h-.08l.52-.52h-1.22v-1.22l-1.04,1.04h-.03l.15-.15v-.09l.09-.09v-.74l-.55-.55h-.09l-1.21-1.21v.35l-.03-1.66-1.13,1.14h-.97v.43h-.14l-.09.09h-.09l-.14.14v-.92l-.95.94h-1.84v.09h-.39l-.22-.2-.03-.5h-.09l-.03-.93c-7.55,1.38-16.65,3.32-24.16,4.8l.36,1.16-3.9,1.29c-.12-.16-.18-.49-.15-.68h-.55l-.11-.11-.03-.28h.81s.23-.22.23-.22l1.08-.02c.03-.7-.14-1.89-.09-2.6h-.08v-.22h.09c-.02-.09.06-1.92-.07-1.94.27-.52-.21-1.08-.33-1.58l-.11-.06v-.31c-.49-.42-1.16-1.42-1.59-1.91h-.92l-.17.17h-.17l-.17.17h-.25c-.18.13-.6.75-.73.94v.69l.23.23.03.79.17.17-.09.11v.29h-.36c-.13-.14-.08-1.32-.09-1.51-5.5,3.13-27.89,16.12-32.92,18.98v.88l.06.06h-.92l1.12,1.12v.39l-.94.95h.77l-.94.95h.88v.64h-.08v.89l-.79.79h.79v.94h.17c0,.18.03.76-.14.89h-.05v.1l-.44.46h.35v.86h.22l.51.51h.05v.41l-1.03,1.03h1.03v.17h.09v.09h.09v.09h.09l-.07.08.09.09-.87.88h1.14l.19.19.02.41h.34v.16l-.24.24.33.33v.26l-1.04,1.04h1.04v.25h.17v.36h-.69l.86.86v.21l-.78.78h.7l-.34.34h.51v.18l.18-.18h.51v.09h.09v.09h.09v.33h.08l-.95.95h.82l.39.39c.07.53.67,1.08,1.03,1.45v.29h.29l.15.15v1.65l-.71.7h.63v.11h-.09v3.39l.15-.15,1.25,1.24v.63h.34v.35h.52c.05.05.33.27.32.35h.8l.06.05v.6l-.06.06h-.19v.18l-.17.17.17.17c.1.09-.67,1.39-.7,1.48h.65l.04.04v.66l.17.09v.13l-1.12,1.12h1.21v.09h.47l.04.51h.43v.31h-.03l.17.17h-.16l1.11,1.12v.51l-.54.54h-.71l.35.36-.02.02.62.57v1.15h.47l.22.22v.37h.09v.25h.17v.16l-.86.87h.41l-.68.68h1.03l-.85.85h.95v.17l.18-.17h.09v.17h.14l-.41.02v.43h-.25v.18h-1.3l.26.25h-.24l.61.61h-.53l1.1,1.1-.04.04.41.41v1h-.71l.8.79v.58h-.97l.95.95v.07h-1.2l.78.78v.08h-.09v.28l-.71.7h.37v.9h-.87l1.21,1.21v.55h.43v.35h.26v.25h.1l-.61.61h1.25l.05.05v.29l-.42.42.42.42v1.31h.25v.25h.34v.57l-.7.7h1.21v.6h.09v.17h.26v.58l-1.2,1.2h1.24l.14.14v.21h.09l-.19.42h.6v.06l.24.06v.74h.3l.41.49.55.19-.09.03v.39l-.34.34v.63h-.26v.51h-.17v.25h-.13l-.09.09h-.56v.25h-.75c-.06.59.11,1.61.09,2.19h-.17v1.55h.01c-.4.34-.22,1.27-.26,1.74h.55c.1.11.19.18.29.23v.19h.17v.51h.09v.09c.07,0,.81-.02.85.03v.48c.39,0,1.06,0,1.44-.06v1.07h.48c-.05.16-.08.36-.06.58l-.17.25c-.04.3-.13,1.01-.1,1.34h-.43c-.34.3-.74.59-.95,1.04l-.27-.27h-.75c-.14.14-.64.65-.79.76h-.53v.39l-.51.51v.91l.23.23.02.72.3.3-.14.14v.63h-.79c-.15.37-.55.75-.49,1.18l-.49.49v.91l.09.09v.07h-.09v1.29l.09.09v.09l.55.55h.09l.09.09h.21v.51c.4-.07.82.1,1.22.17l.05.05v.8h0l-.07.07.41.42v.56h.43v.3l.81.81c.31-.03.73.06.92.33h.27l-.15.15v.83l.17.17v.55h.55l.09.09h.13c-.08.81-.42,1.7.15,2.4h-1.44v.48c-.32.28-.08.94,0,1.52l-.09.09v.08c-.11.12-.21.4-.35.51v.92l.09.09v.55s.79-.04.82.02h-.4v.43h-.69c.13.27.74,1.24.6,1.55.13.17.59.51.77.63.04.57.12,1.31.24,1.8-.26.19-.46.59-.68.83v.75l.14.14.03.29,1.13,1.12s0,.92,0,.94c.53-.02,1.39-.04,1.81.35h.74l.08-.08h.08v.34h1.1c-.08.32-.08,1.14-.08,1.51h.54c.04.13.31.89.31,1.01l-.51.25v.25l-.41.41.41.41v.24l.11.06c-.15.45.19.95.64,1.28h.16c-.05.18.09.37.09.53-.22-.02-.5,0-.73.02l-.15.15h-.09l-.09.09h-.42l-.23.23-.58.02v.17h-1.21l1.21,1.21v.09c.27.23.71.75.87,1.06h.19l.07.07-.63.62c.55.02,1.74-.15,2.1.41-.02.08-.03.22-.03.3h-.25v.8l-.09.09v.66l-3.1.13.02.79h-.52v.88h.68c.05.04.41.26.44.31l-.88.88h1.26l.35,1.01c.2-.04.54.04.71.17l.09.14v.08h-.42v.08h-.26c0,.21.05,1.05-.1,1.22.11.11.12.4.1.54h.09v1.36h.09v.28h-.33c.02.3.02.95-.18,1.2l.18.18v.11l-1.12,1.12h1.21v.26h.6v.09h.09l.09.12v.56h.25v.25h.09v.09h.25v.25h.17v.68h.63l.5.5.14-.14v.16h.55l.42.42h.64l-.86.86h1.21v.09h.18v.26h.54l.19.19.04.37.09.09v.72h.09v.59h.09v.09h.55l.09.09h.13v.17h.17v.09h.09c.04.64-.13,1.67-.09,2.31h.17v.51h.09v.09h.55l.14.14v.21c.36-.05,1.05.07,1.36.1l.3.58h.24l.09.09h.33l.09.09h.28c-.18.46-.06.86.36,1.23v.24c.32.22.36.79.34,1.14h.22l.1.1.02.49h.09v.25c.21,0,1.33.02,1.49-.09l-1.7,1.85,1.85,1.68-.75.84,1.01.93h-1.16l.18.17h-.25l.92.92-.04.06h.1l.07.07v1.49h.31l.22.22v1.2l-.24.24.21.22-.06.06v1.21h.25v.05l.25.25v.08l.44.44v.29h.09v.09h1.23l.33.33.23-.23v.5h.42v.42h.09v.09h.09v.09c.29-.01.8-.04.98.26h.09l.04.04s-.02.06-.03.09h-.47v.63l-.09.09v.5h-.69l.4.41-.57.57h1.02v.44l-.07.07v.91l.07.07v.14l.07-.07.37.37v.34l.5.5v1.13l.09.09v.55h.55l.19.2,3.63-.23v.12h.55l.09.09c.45-.12.73.33,1,.59l.34-.34.13.25h.24l.18.17c.29-.02.54-.03.63.33-.17.39-.2,1.07-.18,1.5.13.1.32.36.38.51l.05.02v.31c.2.09.34.62.4.81h.4l.43.43h.17l.17.17h.17l.04.04v.09c.16.15.51.5.58.72h.4s.26.25.27.26h.13v.43h.52v.35h.38l.31.31v.18l-.09.09v.75l.19.19.06.61h.39c.46.48,1.17.31,1.72.55v.92l.6-.61.14.07v-.22l.47-.47h.55v-.13c.12-.13.45-.45.58-.55h.03l.35-.23h.11l.64.98c.28-.34.93-.89,1.36-1.02.58-.57,1.37-1.1,2.12-1.42l.51.49v-.72h.08l.34.34v-.39h.56v.42l.49-.48.22-.05.21.11v-.16s.95,0,1-.01l.34.34v-.72h.98s-.38-.38-.38-.38c.16-1.22,1.62-1.91,2.36-2.83l.3.3v-.58c.35-.32.69-.62,1.04-.88l.15.15v-.25l.39-.2v-.16l.09-.09.07.09h1.27v-1.27l-.09-.07c.24-.55.73-.96,1.12-1.43h.2l.21-.44c.07-.02.24-.19.29-.24h.01l.97-.98h0c.4-.28.69-.7,1.07-1h.43l-.19-.2c.74-.6,1.4-1.33,2.17-1.9h.03v-.02c.79-.59,1.07-.95,1.66-1.49h.09c.33-.4.89-.81,1.33-1.07h.67l-.35-.35c-.02-.1.02-.28.09-.36l1.35-.02-1.11-.73c2.12-1.81,3.71-3.55,6.16-5.15h.24c2.07-2.19,4.93-3.71,7.28-5.66l.53-.05v-.37l.09-.06h.36l.09-.17h.02c.22-.3.79-.69,1.14-.81v-.16c1.36-.94,2.74-1.89,3.92-3h.47v-.55c.68-.65,1.53-1.37,2.25-2.03l2.96.31v-1.12l.45.05v-1.69c-1.01-.05-2.32-.34-3.23-.73.07-.15.3-.63.28-.8.99-1.94,3.27-3.48,5.18-4.57,2.24-1.23,4.59-3.06,7.09-3.5v-.39c2.25-1.09,4.42-2.28,7.12-3.52v.09c.37-.21,1.16-.6,1.59-.48v-.26s.63,0,.67-.02c.13-.21.54-.38.77-.43.1-.18.47-.19.58-.34h.17l.17-.17h.17c2.42-1.52,5.15-2.61,7.72-4.03h.72v-.39c.64-.23,1.23-.71,1.89-.9.8-.46,1.61-.93,2.44-1.18.52-.49,1.43-.68,2.07-.98,1.1-.35,2.12-.79,3.35-.87.71-.43,1.69-.44,2.42-.43,1.69-.02,3.82.12,5.47.26.66.01,1.4.03,1.96-.28l.48,1.71h1.78c-.02-.1-1.11-3.3-.97-3.3l-.16-.24h.35l-1.12-1.12v-1.84l-.35.35v-.71l-.44.44v-1.11l-.71.71-.08-.08v-.47h-.67v-.17h-.55l-.05-.05v-.17l-.09-.09v-.72h-.11v-.76h-.55l-.09-.09c-.21.03-.45-.13-.67-.09l-.09-.09h-.17l-.09-.09c-.12,0-.37,0-.46-.09v-.04l-.29-.15c.08-.96.76-3.78.54-4.66l-.18-.18v-.13h.09v-.26c.06-.11.36-.48.44-.59h.32l.09-.09h.26c.7-.67,1.58-1.68,2-2.55,0-.21,0-.88-.03-1.08h.2c0-.17-.02-.75.09-.89l.09-.09v-.17l.09-.09v-.26l.05-.05v-.2h.17v-.09h.09v-.68h.43l-.19-.36.21-.21h.98v-.3l.26-.26v.65l.84-.85h.67v-.17h.26v-.33h.07v-.05c.1-.11.5-.09.63-.09l.09-.09h.56v-.56l.09-.09v-.42c.12-.17.3-.33.43-.53h.11c.34-.16.91-.71,1.16-.98v-.84l.09-.09v-.09c.14-.13.48-.57.59-.73h.74l.09-.09h.17l.55-.55v-.09l.09-.09c.04-.45-.13-1.1-.09-1.55h-.55l-.17-.17h-.59l-.12-.13v-.6c.14-.12.31-.37.39-.64h.07l.09-.09h.55c-.01-.26.02-.97,0-1.21l.1-.1v-.37h.43c-.06-.3.08-.78.26-1.02,0,0,0-1.08,0-1.08h-.52v-.02h.78l-1.13-1.13v-.69l.78-.78h-1.37v-.43h-.26v-.42h-.17v-.16l.09.09v-.78l.08-.08v-.19h0v-.2h.33v-.35h.09v-.18l.7-.08-.7-.7v-.8h-.09s0-1.35,0-1.35l-.16.16v-.8h-.25v-.5h-.8l-.17-.25h-.24v-.08h-.09v-1.21l-.79.79v-.27h-.17v-.48l.47-.46h-1.23v-.52h-.52v-.29h.09v-.25h.33v-1.68h-.22l-.12-.36.59-.02v-.34h.33v-.8l.09-.1v-.41l.07-.09-.04-.04h.41v-.57l.09-.09v-.09l.6-.04v-.51h.39l.61-.61h.12v-.12l.94-.95h-.94v-1.03h-.17v-.7c-.14-.07-.45-.21-.51-.37l.96-.96h-1.1v-.12h1.1l-1.03-1.04v-1.32h-.09v-.09h-.1v-.22l-1.38-1.38v-.26l.26-.26v-.54l.68.68v-1.63h.77v-.1h.09v-.08l.29-.08.44-.44h.37v-1.46l-.09-.09v-.09l-.23-.23-.02-.19-.09-.09.1-.13v-.72h.27v-1.21h.34v-.69h.6v-.46c.16-.17.73-.13.94-.13v-.25h.33v-.43h.43v-.63l.17-.18v-.04h.18v-.55l.17-.17v-1.1s.17-.17.17-.17v-.09l.42-.42-.38-.38.38-.38c.03-.28-.01-.79-.21-1.01l.2-.2v-.68l.15-.15h.16l.09-.09h.56v-.93h.42v-1.24l.09-.09v-.54l.3-.03.23-.23.57-.02v-.55l.42-.42-.32-.32h.31v-1.81l-.43-.51.09-.1v-1.21h-.17v-.56s.89-.88.89-.88h-1.05l.66-.66v-1.01s.18-.29.23-.32h.72v-.09h.09v-.25h.17c0-.06.03-1.25-.05-1.26l.23-.44s-.61-.58-.58-.63c.09-.12.06-.59.07-.74l-.55-.56h-.57l-.55-.6h-.33l-.26-.25h-.03c.11-.13.09-.55.09-.7h.61v-.33h.39l.55-.55v-.17l.09-.09v-.04h.31c.13-.18.96-.78,1.15-.93v-.15l.18-.18v-1.38h-.55ZM816.28,580.35c-.04.13-.13.42-.26.49.08.23-.21.46-.35.6v.05h-.14l-.19.19h-.22v.14c-.31.26-.68.78-.97,1.05h-.09l-.33.33h-.05v.05c-.06.03-.11.18-.12.24-.2.12-.51.52-.73.62v-.11s-.31.39-.31.39h-.03v.04l-.04.05h-.05v.05l-.33.33v.1l-.31.39h-.14v.13h-.37v.47l-.1.1v.08l-.22.28h-.39l-.09-.09c-.28.06-.67-.11-.9-.26-.17.04-.33-.12-.5-.09v-.26c-.51,0-1.31.05-1.7-.32l.55-.55h-1.04v-.42h-.09v-.7l-.14.14c-.02-.05-.49-.88-.42-.92l.03-.03h-.03v-.29h-.22l-.26-.51h-.24l-.18-.18h-.17l-.17-.17c-.14.01-.38-.01-.48-.14v-.3h-.17v-.07h-.31l.61-.6h-.68v-.03h.26v-.09h.09v-.08h.25l-.25-.25v-.22l.09-.09v-.17l.25-.25v-.17l.09-.09c-.03-.22.13-.46.09-.68h.7l.37.37.02-.03.3.3v-.64h.25v-.64l.33-.33-.32-.33v-.64h0v-.55l.09-.1h-.09v-.3l-.3.3h-.38s-.64,0-.64,0l-.41-.41-.41.41h-.56v.55l-1.03,1.01h-.02l-.16-.12c-.32.11-.5-.09-.85-.13v-.16c-.13,0-.73.03-.83-.06l-.06.06h-.13v-.26c-.14,0-.83.05-.93-.09v-.35h-.57c-.53-.26-.58-.46-.53-1.01h-.09v-.09h-.42c-.08-.19-.15-.5-.03-.69h.38v-.52h.35v-.43h.43v-.6h.34v-.4l.17-.09v-.24l.09-.09v-.61c-.15-.22-.33-.67-.26-.94h-.09v-.17h-.09v-.09h-.53v-.34h0v-.08h-.08s0,0,0,0h.08s-.08,0-.08,0h0s-.09,0-.09,0v-.09h-.17v-.09h-.51c-.13-.06-.29-.33-.33-.46l.07-.1c-.04-.12.12-.39.17-.48-.03-.07.09-.27.12-.33h1.29l.19.55h.03v.22l.31.31c-.04.21.12.43.09.64l.09.09v.16l.41.42v2.02l1.68-1.68v-.55h0s.06-.11.06-.11h.03c.08-.15.11-.6.09-.78-.08-.12-.22-.4-.17-.56l-.09-.09v-.02l.04-.04-.03-.06.31-.62h-.55v-.06l-.09-.09v-.19c.4.01,1.3.14,1.73.09l.09-.09h.63v-.26h.05c.08-.14.4-.26.52-.35h.09l.17-.17h.55v-.18h.25v-.47l.34-.34v-.17l.17-.17c0-.23-.03-.89.1-1.09-.11-.41.08-.73.32-.98v-.07l.25-.39v-.34l.17-.17v-.09c.15-.11.25-.35.38-.46h.47v-.25h1.39l-.98-.97c.05-.05.16-.16.23-.18l.15-.28.48-.25v-.03h.04l.17-.17h.8v-.35h.13c.08-.14.4-.26.52-.35.11-.04.29-.12.42-.09l.17-.17h.08l.18-.18h.63v-.25h.04l.09-.09h.18v.45h.25v.78l.18-.18v.51h.33v.17h.55l.12.12-.6.59h.35l-.76.76h1.81v.06l.09.09h0s.06.07.06.07c.06.28.16.86.2,1.15h.11s.09.42.09.42c-.34.77-.35,1.74-.38,2.58h-.18v.42l-.91.92h.87l-.06.43-.05.05c.04.17-.06.36-.1.51l-.17.17v.09l-.14.14h-.12v.12l-.04.04h-1.17l.67.67-.59.59h.74c-.08.19-.16.37-.24.54h-.04c-.03.1-.12.34-.17.43h0s-.04.07-.03.09l-.14.14v-.05l-.31.39h-.24v.3l-.31.39h-.37v.24h-2.5l.76.76h-.21v.2h-.16v.34l-.14.14h-.07l-1.76,1.77h1.71v.7l.42-.42v.1l.25-.25h.32c.15.18.45.33.6.52h.25l.04.04v.54c.38-.15,1.36-.47,1.74-.5l1.12,1.12v-1.12h.18v-.25h.04c.16-.19.42-.41.69-.35l.09-.09h.72v-.26h.47l.09-.09c.38.05.89-.06,1.18-.32.41-.05.85-.41,1.26-.37l.1-.1c.17-.04.37-.09.55-.05l.12-.12h.34l.09-.09h.09l.06-.06.21.21.24-.24h.38v-.26c.18.04.57-.19.69-.31.08-.04.27-.04.36-.03.59-.36,1.05-.43,1.63-.81.18-.1.42-.33.63-.38.02,0,.5.02.51-.01.02.01,0,.32,0,.34.22.12.63.46.84.57v.36h-2.39v.09h-.09v.26h-.43v.56s-.01.02-.02.02h-.49v.34h-.26v.55l-.06.06h-1.25l.8.8-.87.88h.51v.02h-.52v.35s-.12.06-.14.09c-.04.01-.22.02-.27.02v.07c-.07-.02-.21.05-.27.09-.1.04-.38-.14-.46-.17-.61-.05-1.66.1-2.25.09v.09h-.09v.38l-.68.68v.09l-.17.17h0s-.33.34-.33.34v.37ZM806.21,589.43v-.15l.86-.86h-.48l.56-.34h.66v-.17h.71l-1.18,1.19h1.03c0,.06.02.46-.04.5h.04v.97l.48-.48c0,.22-.04.41.03.7-.04.21-2.32.11-2.48.13,0-.36-.14-1.1-.09-1.49h-.1ZM796.04,601.68v.6l-.19.16h-.25v-.16l-.16.16h-.16v.16l-.02.02h-.16v.09h-.09v.09h-.33v.17h-.17v.4l-.04.04h-.64v.09h-.09v.31c-.06.07-.29.2-.38.24l-.09.17-.37.19v.24l-.09.09v.09l-.09.09c.02.22-.08.55-.26.69v.12h-.43v.09h-.09v.09h-.43l-.17-.17h-.78l-.02-.02v-.09l.09.09v-1.6l1.24-1.24h-.65c.13-.23,1.85-.12,2.07-.14l-.47-.47c.17-.08.57-.05.76-.06v-.09l.42-.02v-.22l.42-.14v-.18h.37l-.18-.18c.1-.12.35-.31.48-.38v.03l.42-.32h.31s.57.86.57.86v.14h-.35ZM812.27,588.22v.03h-.11l-.03-.03h.14ZM808.78,587.55l-.06.06-.06-.06h.12ZM800.47,597.09h-1.26v-.14l.34-.18v-.28h.44v-.2l.34.34v-1.29l.17-.25v-.11l.08-.08h.47v-.51h.1l.09-.09h.09l.32-.32h-.01s1.32-.01,1.32-.01l.09.09h.17l.09.09h.12v.24h0s-1.19,0-1.19,0l.56.55h-1.38l.6.6h-.13v.46l-.07.07h-.5v.09h-.25v.76h-.58v.17ZM798.16,598.57v.16l-.08-.08.08-.08ZM791.07,602.71v.14h-.03v-.14h.03ZM788.26,609.77v.18h-.06s-.01-.33.02-.35c.09-.09.37-.08.49-.08h-.12v.09h-.17v.17h-.17ZM800.97,567.21s-.07-.04-.09-.06h.3v.06h-.21ZM800.82,567.08v-.02h.02v.04l-.02-.02ZM797.02,599.52v-.04l.07-.05h.03c.23-.16.6-.37.78-.61v.76h-.89l-.03-.04.04-.03ZM798.2,598.22s.11-.18.09-.23h.18v-.55s.19-.1.22-.14l.35-.03v.42h-.01.01v.86l-.36-.36v.62l-.48-.48v-.11ZM805.49,592.62h.27s-.28,0-.28,0h0ZM806.38,584.09v-.24h.24l-.24.24ZM798.97,567.46l.06-.05c.02.32.07.39.2.68l-.45-.45.18-.18ZM801.41,570.5c.12,0,.58-.03.67.07h-.7l.04-.07ZM826.28,574.31v.38c-.09-.04-.18-.08-.22-.12l.22-.27ZM796.71,600.15h.12s.39.39.39.39h-.39v.09h-.08v.79h-.04v-1.26ZM799.2,597.25v-.05l.48.48h-.05l-.44-.43ZM806.39,591.39v-.18l.23.23h-.27l.05-.05ZM812.84,588.04l.02.02-.04.04h-.05l.07-.07ZM814.54,588.07c-.34.14-.67-.07-.8-.05l.49-.17c.1.05.21.1.31.15v.07ZM804.75,577.72h.01v.72h-.73l.71-.72ZM824.62,415.43v.17l-.16-.16h.16ZM718.51,478.74l-.24.24h-.74l.64-.64v.25h.33v.16Z"/>
    <path class="cls-3" d="M690.43,672.75v.18l.85-.56v.17l.48-.48h.13c.11-.12.35-.36.5-.42h.33l.06-.11h1.11l-.6-.6.1-.1v-.09l.49-.49-.19-.19.03-.03h.6l-.3-.3,1.01-1.01h-1.81v-.17h-.11v-.54h-.32l-.09-.25h-.28c0-.12,0-.95,0-1.1h-1.58l-.57,4.51-.08.08h.07l-.23,1.77.4-.26Z"/>
    <path class="cls-6" d="M770.7,626.72h.99l-1-1,.23-.24h-.47l-.06-.06v-.12h-.03l-.04-.42h-.27v-.71l-.4.4v-.22l-.6.6h-.16v.1h-.41v.42h-.55l-.37-.37v.37h-.47l.17.17h-.38v.07l-.25-.25.68-.68h-1.12v-.59h-.39l-.31-.31v-.47h-.09v-.09h-.35v-.26h-.17v-.09h-.43v-.34h-.25v-.17h-.55l-.09-.09h-.11l-.09-.17h-.15l-.04-.04v-.33c-.22-.08-.87-.25-.98-.49h-.01s-.4-.41-.42-.43h-.05s-.27-.59-.29-.64l-.13-.07c-.01-.2.2-.43.34-.54v-.9l-.36-.19c-.05-.11-.11-.25-.23-.4v-.57h-.7c-.08-.03-.36-.2-.45-.17l-.17-.17h0s-.25-.49-.27-.5c-.32.02-.81-.14-1.14-.09v-.21l-4.21.26v-.45l-.09-.09v-1.14h-.07v-.21h.61l-.6-.6h.43l-1.16-1.15,1.05-1.06h-.67c.06-.07.1-.14.14-.21h.19v-1.37s-.33-.16-.34-.2v-.55h-1.2v-.26h-.17v-.09h-.09v-.09h-.18v-.42h-.42v-.34h-.18v-.44c-.55-.06-1.25.1-1.77.06l-.03.03h-.19l-.23-.23v-.55h-.08v-.16l.42-.42-.27-.27c.06-.03,0-.79.02-.83l.28.28-.27-1.53.97-.02-1-1,.15-.22-.25-.23h0s-.01-.01-.01-.01l-.14-.13-.21-1.2.27-.3-1.74-1.58,1.67-1.82v-1.27h-.51v-.34h-.69c-.18-.15-.56-.21-.79-.17l-.1-.09h-.56v-.59h-.34v-.13l-.09-.09v-.25l-.17-.18v-1.26l-.63-.63c-.23,0-.68.03-.85-.17h-.22v-.6h-.57c-.19-.13-.39-.18-.61-.16v-.05h1.05l-1.05-1.04v-.67l-.25-.13v-.27h-.09v-.09h-.27c-.05-.07-.1-.21-.08-.3l-.18-.17v-.55h-.09v-.09h-.17v-.17h-.63l-.09-.09h-.05v-.09h-.11c-.05-.09-.08-.27-.06-.37l-.17-.29v-.65l-.09-.09v-.55h-.08l.43-.44h-1.23l-.14-.14v-.55h-.26v-.25h-.55l-.09-.09h-.75l-.08.08-.13-.25h-.15l-.34-.34h-.09l-.12-.12v-.17l-.51-.51v-.38h-.09v-1.06h.66v-.72l.17-.17v-1.29h-.09v-.26h-.56l-.09-.09h-.04v-.17h-1.1v-.34h.25v-.3l.34-.34v-1.72h-.17v-.06l-.09-.09v-.25l-.55-.55c-.11.02-.3-.01-.38-.08v-.63l2.19-.09v-1.48h.42v-.64l.41-.41-.24-.24v-1.02l-.09-.09v-.09l-.32-.32-.02-.12.17-.18v-.08l.09-.09-.02-2.44.6-.56v-.91l-.23-.23-.03-.82h-.09v-.09c-.29,0-1.19-.03-1.45.07-.02-.14-.08-.3-.19-.46l.29-.29v-.25l.09-.09v-.99c-.31-.23-.61-1.14-.6-1.51l-.29-.15c.22-.62-.32-1.43-.71-2.1h-.24l-.41-.41-.24.24h-.2l-.06-.06c-.68-.19-1.15.28-1.69.05.07-.31,0-1.09.02-1.44h-1.11l.83-.43v-1.44h-.24l.75-.67v-1.29h-.09v-.09h-1.13l-.43-.42h-.19l.41-.41v-.08l.09-.09v-1.21h-.27l-.06-.11h.77v-.09h.17v-1.35h.33v-.47l.17-.18v-1.21h-.09v-.09h-.16v-.48l-.26-.4h.24l.63-.63v-.09l.09-.09v-.75c-.23-.2-.62-.78-.6-1.09-.32-.66-1.36-1.19-1.2-2.03l-.17-.09v-.4c-.09,0-.98,0-1.04,0l-.14-.16h-.29v-.39l.52-.53h-.78l-.37-.42-.09-.03c0-.19-.41-.55-.53-.68l-.04-.8-.09-.09v-.55h-1.09v-.34h-.09v-.09h-.35v-.23s-.11-.1-.11-.1l.06-.06h1.47v-.36l.25-.13v-.32l.09-.09v-.73l-.13-.2-.04-1.11h-.18v-1.76s.23-.23.23-.23h.76l.65-.65v.31h.09v.09h1.21l.59-.59c.02-.33.24-1.06.08-1.36l.34-.02c.22-.32.5-.98.4-1.38l-.09-.09v-.09l-.83-.75.5-.53-.3-.3h.39v-1.76h-.09v-.09h-.55l-.09-.09h-.01c.08-.05.05-.71.05-.79l-.17-.17v-.47h-1.18c-.22.19-.35.36-.69.37l-.29-.29h-.21v-.25h-.13l-.04-.04v-1.14h-.09v-.09h-.08v-1.34l1.19,1.19v-1.72h.25v-.25h.34v-1.05l.17-.17v-.31h.56l.09-.09h.09l.09-.09h.12l.36.36v-.36h.07v-.59h.17v-.56l.09-.09v-1.21h-.33v-.33h-.09v-.09h-.48l-.09-.17h-.19v-.09h-.34v-.26h-.99l.86-.85h-1.18l.31-.59h-.68v-.09h-.09v-1.8h-.26v-.24l.86-.86h-1.3v-.17h-.22l.94-.93h-1.14v-.34h-.17v-.17h-.25v-.17h-.31s.06-.07.06-.07v-1.17l-.02-.02.26-.26-.42-.42v-.64h-.26v-.17h-.09v-.09h-.09v-.09h-.26v-.64h.52l-.52-.52v-.25h.62l-.53-.52h.86l-.7-.7v-.29l.95-.03-.46-.46.46-.46h-.91l-.03-.14.52-1.05h-.15l.86-.85h-1.22v-.25h-.17v-.17h-.09v-.5h-.09v-.5l.95-.95h-1.22v-.14h.17v-.26h.26v-.64l.09-.09v-.08s.12-.11.17-.12v-1.68h-.09v-.17h-.09v-.17h-.09v-1.69h-.09v-.68h-.08l.26-.03-.7-.7v-.08l.09.09v-1.5l.05-.05h.96l-.61-.62.72-.72h-1.21v-.17h-.18v-.07l1.12-1.13h-.94l-.18-.18v-.08h-.08v-.35h-.17v-.35h-.09v-.09h-.25v-.09h-.08v-.17h-.17v-.26h-.25v-1.29l-.19.19h-.94v-.18l.08.08v-1.47h.09v-.2l.09-.09v-.25l.17-.17v-1.21h-.09v-.09h-.3c-.13-.05-.47-.81-.53-.93h-.35l-.02-.26h-.98c-.04-.08-.26-.44-.22-.53h.09v-.33h.17v-.43h.54l-.54-.54v-.25l-.41-.41-.02-.32h-.3l-.47-.47v-.1l.13-.13h.13v-.09h.09v-.68h.09v-.09l.25.25v-.5h.09v-.96h.77l-.76-.76h.33l-.52-.52v-.12l.53-.53h-1.18c-.1-.12-.4-.35-.53-.45l-.03-.32h-.38l-.66-.66,1.12-1.13h-.17l.17-.17h-.08l.09-.09h-1.14v-.29h.17l-.36-.36h0s-.06-.07-.06-.07v-.14h-.09v-.33l.61-.61h-1.05v-.28h.43l-.43-.43v-.41l-.21.21-.4-.4v-.29h-.09v-.19h1.21l-.8-.8.19-.37h-.56l-.04-.04v-.55h-.09v-.09h-.3l-.05-.05v-.72h-.07l.86-.87h-.44l.43-.44h-1.12l.7-.7h-1.08c-.04-.09-.27-.45-.22-.55l-.09-.09v-.17l-.15-.15h1.02l-.61-.61c-.15-.41.43-1.41.6-1.75h-.68v-.09h-.12l-.22-.22v-.24h.17v-.47l.96-.95h-1.13v-.15l.06-.03v-.62h.52c-.04-.1-.5-.87-.43-.98l.09-.09v-1.21h-.09v-.09h-.18v-.05l.28-.26c-.06-.13-.34-.59-.31-.73l3.78-2.17.2.31s.1-.05.24-.12c1.11-.59,25.98-15.01,27.54-15.87l-.58-.59v-.98h-.17c.05-.56-.12-1.45-.1-2.01.11-.17.36-.47.51-.6-.07-.22.16-.63.27-.81l-.69-.69v-.47h-1.21l-.55.55c.04.2-.06.38-.09.55l-.59-.68h-.18c-.12-.2-.51-.4-.66-.6-.43.05-1.13-.09-1.55-.09l-.02-2.68-.09-.09v-.55h-.44v-.27c-.21-.09-.57-.32-.72-.49-.04.08-1.35-.66-1.41-.68,0,0-1.09,0-1.09,0l-.11-.08h-.15v-.44h-1.49s-.86-.87-.86-.87h-.47c.11-.12.09-.72.08-.88l.08-.09v-1.29h-.34v-.92h-.55l-.09-.09h-.07s-.07-.14-.06-.2c.19-.12.47-.5.58-.68h.69v-1.3l-.09-.09v-.17l-.74-.73c-.31.19-.77.36-1.13.35v-.87l-.08.08v-.95h.78l-1.04-1.04v-1.34l-.43.43v-.41h-.25v-.5l.86-.87h-1.38v-1.4l-1.13,1.14h-.14v-.42h-.31l-.14-.27h.28v-1.29l-.17-.18v-.09l-.02-.02v-.07l.31-.19-.31-.31v-1.06h-.34v-.18h-.42v-.93s-.05,0-.05,0v-.06s-.05-.15-.04-.21h.08v-1.21l-.09-.09v-1.27l-.17-.17v-.55h-1.38c-.18.36-.96.24-1.27.25l-.09.09h-.07l-.29-.58h-.05c.23-.37.42-1.12.34-1.55h.26v-.65l.17-.25v-1.32l-.09-.09v-.55h-.24l.26-.5h-2.45v.44h-.59l-.09-.17h-.62l-.08-.11v-.32h.17v-.26h.35v-.55l.09-.09v-.5l.5-.53v-.09l.09-.09v-.74l-.17-.18v-.47c-.58.03-1.51-.14-2.1-.09v.25l-.35.32-.26.03v-.7h-.4l-.09-.17h-.63l-.23-.44h-.11v-.5h-.42v-.52h-.64l-.05-.05v-.63c-.17-.01-1.01.06-1.13-.1-.15.12-.35.12-.5,0l-.3.16-.02-.57h-.55l-.48-.48v-.38l-.17-.17v-.25l-.17-.17v-.9h-.59v-.52h-.77v-.1h-.13l-.52-.53-.18.35h-.72v.17h-.13s0-1.45,0-1.45l-.87.87c-.17-.08-.36-.12-.54-.1-.22-.16-.46-.17-.63-.17l-.49-.32h-.08l-.48-.48c-9.23,5.87-20.33,12.82-29.62,18.58l-.17-.28-2.62,1.61-8.65-14.03-.68.42-.07-.23h0s-.22-.76-.22-.76c-4.87,1.38-19.21,5.46-23.85,6.76l.4.66-.95.63s-.86,0-.89,0v.09h-.09c0,.15.05.83-.09.93-.05.33.09.59.09.85-.42-.18-.99-.53-1.32-.86h-.22v-.46l-.17-.17v-1.22h-.52l-.29-.26h-.09l-.09-.09h-.39c.04-.53-.56-1.18-.9-1.53h-1.51v.28h-.22l-.48-.32c-6.55,4.12-14.97,9.42-21.64,13.36l-.16-.26c-3.82,2.27-9.35,5.77-13.2,8.04l3.12,5.22-16.91,10.54-1.78-2.79c-3.84.6-13.15,2.1-16.84,2.87-.17.76-1.15,4.93-1.24,5.6-2.04,1.46-10.15,7.36-12.12,8.56h-.47v.31l-.54.36.38.37v1.82h.09v.09h.55l1.07,1.07v.97h.55l.09.09h1.21c0-.15-.04-.73.09-.84h.13l.04.19c.17.22.62.53.87.66h1.7l.05-.05c.05.08.62.04.7.05.21-.25.66-.5.79-.72.02,0,.03,0,.06,0,.57.26.5,1.12.49,1.63l1.68,1.68v-.95h.63v.24h.55l.5.5.47-.48c.21-.13.76-.13.99-.12-.07.05-.04.41-.05.49-.13.26-.21.77-.17,1.06l.55.55h.15v.17h1.38l.78-.86h.47c-.01-.13.05-1.16-.08-1.24l.59-.03v-.17h.07l.18.18s.79.03.81-.02v.25l-.34.34v1.26l-.51.51v1.62h.09v.41l.51-.17v.37h1.48c.09-.07.49-.37.57-.43h.72v-.49l.15-.12h.4l.15.44h-.18c0,.94-.25,2.49,1.3,2.27l.35.35c.41,0,1.02,0,1.39-.15v.38h-.01c-.46-.21-.86-.17-1.21.13h-.46v.56l-.09.09c-.05.58,0,1.26.5,1.66.24.09.65.37.82.56h.31c.22.22.59.44.79.68h.74l.27-.27c.05.08.44.55.4.65l.1.1c-.03.35.09.6-.09.97-.28.36-.27,1.64-.25,2.3h.72l.33.33h.38v.56l.09.09v.56h.09v.09h.84v1.38c-.09.09-.34.08-.46.08l-.09.09h-.55v.72l-.41.42c.32.24.7.86,1,1.08v.1c.06.08.41.58.47.65l.04,1.09h.39l.34.34h.92l.72-.72c-.04-.16.08-.33.09-.47h.26v-.32c.1-.08.19-.17.25-.26h.59l.04.97.08.08h-.16c0,.1.02.54-.04.62-.17,0-.54.43-.65.53v1.08c.36.34.98,1.13,1.42,1.18l.1.11s.87.24.9.26c.02.04.05.09.08.13-.07.04-.45.2-.48.27h-.55v1.46c.33.35.71.92,1.01,1.29-.13.18-.42.53-.59.67v1.16c.23.12.27.6.43.77v.55c.4-.05.81.08,1.13.09l-.89.02v.55l-.09.09s0,.16-.03.2c-8.92.08-22.16.37-31.04.33l.33,29.16-20.56.17c.14,7.19.33,19.83.36,26.88,7.6-.12,15.36-.19,22.9-.45-.02,7.55.15,16.96.45,24.52l4.87,2.39,4.11,2.1h1.81l.59.59.17-.17.17.17.76-.76h.55v-.25h.3l.57-.57,1.45-.04-.15-.29.42.22.41-.41.53.53v.18l.09-.09.48.48v-.95l.31-.3c.35-.02.54-.14.81-.23l.39.39h1.29v-.22l.75-.03h0s.37.19.37.19l.36-.36h.55v-.17h.09v-.17h.61v-.25l.19-.14.06.06h.17l.41.41.09-.09.54.53h1.28l.09.09h.29v.17c.49-.04,1.48-.01,1.87.34l.09-.09h.94c.09.11.06.79.06.93h.09v.09c.5-.02,1.36.14,1.88.09l.09-.09h.56v-.95l.6-.31v-.26l.08.08h.04v.17h.09v1.22l.75-.76v.39l-.25.25v1.52s-.18.17-.18.17v.83l.09.09v.09l.09.09c.07.2.11.91.09,1.14h1.44v.33h.51c-.1.34.22.73.25,1.03h-.09v1.21l.98.98h.18l.13.13v.47h.55l.09.09h.26v.76l.05.04v.17l.12-.06.4.37.03.36.23.23.03.36.73.73h.03s0,.33,0,.33h.63l.17.17h.23v.42h.59v.26h1.46l.44-.44v.33h.51v.22l.17.17v.8h.25v.09h.59v.09h.36v.3l.55.56h.07v.64c.16.1.21.38.33.51v.05l.78.51h.46l.05.05v.47h.86v.07c.22,0,.9,0,1.1.02l.14-.09h.18v-.09s.03-.01.04-.02v1.1l-.42.05v.61h-.08v1.11h-.94l1.21,1.21v.63h.17v.55l.09.09v1.5l.43-.43v.69h.43v.13l.18.18v1.16l2.69-1.62c3.02.03,9.66-.05,12.73-.09l-.52.81c1.96,2.05,6.06,6.72,7.93,8.73-9.29,7.93-18.48,16.16-27.84,24.12l12.46,14.09c.44,0,4.85-1.86,5.37-2.06l.27.27.07-.07h.2l.09.09h.05v.19l.33.18v.31h.29l.23.23v.29h.18v.08h.26v.17h.55l.09.09h.09l.09.09c.43-.1.91.45,1.34.33l.09.09h.17l.04.04v1.34l.78-.78v.24c.53.06,2.25-.18,2.8-.26l.07.04v.31h.09v1.08l.83-.74.46.46v.97h.09v.09h.09v.17h.26v.17h.43v.25h.17v.17h.42v.14l-.25.25.42.42v.63h.26v.43h.17v.6h.09v.09h.34l-.15.15.13.13-.13.13.56.56.03.48-.85.86h1.29v.34h.09v.09h.09v.09h.13l.04.84h.76v.25h.09v.09h.14l-.35.35c.32.04,1.89-.15,2.08.22v.04c.31-.05.7.2.89.43h.91l.17-.17h.17l.09-.09h.17l.17-.17h.31c.09.04.22.16.28.25.26,0,.95-.03,1.17.12l.21-.21c.23,0,.53.13.77.09l.52.52h.3v.29l.09.09v1.75h.17v.16l-.08.08c-.03.47.13,1.11.09,1.58l.32.32.02.23h.34v.26h.56l.09.09h.56v.33h.26v.52h.09v.09h1.29l.09-.09h.89v-.39h0c.21.07.53.31.65.49l.02.41h.09v.11l.34.18v.19l.72.72h.39v.34h1.68v-.09h.09v-.23l.08.16h.97c.07.24.47.67.64.85h.28c-1.58,2.55-6.2,10.03-7.73,12.44-.61,1.02-1.81,2.39-1.55,3.67.18,0,.86-.03,1.01.06v.7h.55l.09.09h.75l.09-.09h.17l.09-.09h.09c.07-.08.46-.43.47-.54.11-.02.29-.11.35-.2.14-.05.39-.23.51-.29.04.14.1.28.19.41v.51h1.19v.34h.09v.09h.25v1.02h.63l.09.09h.05v.17h.52v.83h1.37v.51h1.16c.25-.18.55-.47.62-.72l.33-.03v-.34h.31l.09-.09h.4l.04-.17h.02s.03.01.03.01v.34h.68v1.48l1.34-1.35.15.15h.31v.5h.47l.18.17h.34c.23.27.73.39,1.07.34v.17h.09v.68h.55l.21.21.56-.19.05.02v.65h.17v.03c.24.1.65.37.81.58h.08l.09.09h.25l1.14,1.14v-1.02s.56-.03.59-.03h0s.5,0,.5,0v-.53l.59-.31v-.24l.09-.09c-.04-.34.05-.47.25-.72h.43v-.55l.03-.03h.55v-.47c.05-.1.5-.31.6-.37v-.16c.22-.21.55-.38.8-.56h.64v-.4l.17-.09v-.32c.1-.13.36-.31.51-.37v-.09c.22-.06.4-.15.54-.23.05.03.95,0,1.01.01v-.47c.42-.42,1.05-.87,1.59-1.14.49-.21,1.02-.63,1.52-.81.72-.25,1.79-.76,2.51-.98,0,0,.74-.74.74-.74h.38v-1.68h-1.27v-.33h-.63l-.09-.09h-.34l-1.12-1.12v.78h-.02v-.33h-.8l-.09-.09h-.51s.16-.31.16-.31l-.71-.37v-.43h-.25v-.25h-.26v-.42h-.34v-.46c4.32-.66,15.52-2.95,19.98-3.74v-1.67l-.09-.09v-.33c-.19-.1-.18-.39-.19-.57.15-.27.09-.97.1-1.36l-.17-.09v-.48c-.26,0-.98.05-1.18-.16v-.35h-.64c-.07-.05-.14-.09-.21-.13.02,0-.25-.28-.25-.29h-.2l-.05-.05v-.55h-.17v-.25h-.46l-.38-.38v-.73l.03-.03v.16h.21l.39.39v.04h.04l.69.69v-.6l.16.16h0l.34.34h.09l.09.09h.08l.42.42h.09c.34.46,1.41.34,1.9.35v-.68h.13l.13-.13h.03l.18.17h.94l.12.12-.63.62h.97v.09h.24v.38l.09-.09v.18l.26-.26.31.31h.21v.38l.05.05c-.07.06-.05.31-.05.39l-.09.09v.09l-.08.08h-.18v.46l-.16.18c.14.1.08.79.09.94h.32l.02.02v.55h.43c.01.09.27.32.33.38v.09l.17.17v.38h.38l.53.53v.24h.24l.36.36v-.36h.62l.07-.07h.57v.8l.25-.25v.27l.76-.77.08.08v.03h.03l.22.22v.26l.13-.13.04.04v.38h-.09v.09h-.25v.18h-.21v.69l-.05.05h.05v.03h-.03c-.16.19-.49.43-.68.59h-.09l-.6.6h-.2v.63s-.07.11-.08.13h-.36v.44h-.25v.26h-.13c-.19.34-.66.26-.97.26v.17h-.38l-.09.09h-1.07l.36.69h-.61l.64.63v.05h-.25v.09h-.25v.17h-.05l-.09.09h-.25v-.97l-.88.88-.36-.37v.7c-.14,0-1.01-.01-1.16,0l-.09.09h-1.69l.21.21c-.26.1-.52.26-.77.52l-.12-.13v.27c-.06.08-.1.14-.19.12-.05.11-.26.09-.35.09l-.55.55c.06.28-.15.81-.24,1.07l.09.18-.18.18.33.33v.29l-.38.38h-.33l.17.17-.67.67h1.3v.35l.19-.19.14.14-.06.06h-.55v.09h-.09v.47l-.13.13h-.39c0,.31.06.7-.26.89.02.11-.01.3-.09.38.04.17-.07.44-.16.58h-.26v.89l-.09.09v.75l.55.55h.91c1.18-1.17,2.37-2.47,3.68-3.48.25-.36.64-.76,1.02-.96.52-.51,1.15-1.16,1.8-1.49,1.34-1.51,3.29-2.81,4.83-4.12,1.21-1.01,2.66-1.83,3.85-2.85,1.32-.79,2.22-1.54,3.48-2.19h.13c.45-.37,1.15-.62,1.62-.94.41-.14.76-.49,1.16-.67,1.56-.65,2.98-1.79,4.68-2.18v-.25c.18-.15.47-.5.57-.72h.46v-1.38l-.09-.09c-.03-.11-.12-.26-.09-.38l.69-.69.64.6v-1.11h.43v-1.24c.81-.55.91-.93,1.76-1.44h.67v-.17h.16c1.27-2.23,4.05-3.11,5.88-4.81h.17l.25-.25h.16c.25-.18.58-.37.86-.5,0,0,1.45,0,1.45,0l-.54-.54c.74-.41,1.55-1.08,2.35-1.32l.39-.25h.13l.17-.17h.09c.06-.05.24-.3.34-.26,1.37-.78,2.86-1.7,4.33-2.3.23-.24.67-.52,1.01-.48.44-.39,1.07-.67,1.58-.94l-.02.07.14-.14c.38-.05.91-.52,1.31-.44l.16-.16.17.15.07-.25c1.61-.61,3.38-1.86,5.04-2.3v-.17c.09-.05.35-.2.46-.16l.09-.09h.55v-.32l.51-.18v-.05h.18l-.06-.06h.55v-.29c.23-.33.57-.3.93-.57h.21l.15-.15.19.18v-.3c.32-.17.65-.5,1.01-.5.14-.15.38-.39.61-.35.19-.23.57-.43.81-.6h.04c.35-.29,1.01-.56,1.35-.84l.41.41v-.62l.8-.5h.33s-.14-.14-.14-.14c.04-.02.17-.09.21-.08.02-.05.33-.19.38-.21v-.07l.47-.31h.56v-.17h.26v-.4s.2-.19.21-.2h.17l.09-.09h.55v-.38l.13-.13h.09l.25-.25h.09c.08-.09.29-.3.4-.34.02.05.8-.4.83-.4v-.04l.25-.13v-.06l.07-.05.7.7v-1.13h.7l-.03-.03v-.38s.05-.03.07-.05l.83.08-.39-.38c.26-.06.83-.44,1.05-.59v-.02c1.48-.96,3.98-2.1,5.15-3.45v-.05c.49-.33.97-.67,1.43-1h.34v-.08h.54l-.31-.31.07-.04ZM731.17,414.79l.87-.07v-.09h.09l-.21.21h-.75v-.05ZM594.23,569.37h0s.03-.04.03-.04l.02.02-.04.02ZM670.39,676.72h-.43v-.27s.08-.04.1-.05v.08h.22l.12.23h-.01ZM735.64,582.5h.08v-.17h.27l-.35.36v-.18ZM730.56,557.86l-.07.02-.02-.02h.1ZM725.28,504.76h.12l-.1.1-.02-.02v-.08ZM714.95,640.86c.04-.14.21-.35.32-.43h1.35l.09.09h.23v.22l.18.18c.01.08-.02.22-.07.28h0s-.37.01-.37.01l-.09-.09h-.62s-.06-.06-.06-.06h-.26l-.09-.09s-.6.01-.61-.03v-.08ZM711.43,643.17h0s0,.2,0,.2h.55l.05.05v.33l.27.27s-.11.17-.13.2c-.03.01-.18.09-.19.11h-.08l-.08.08h-.19l-.2-.2v-1.05ZM706.13,645.64h.95s-.74-1.44-.78-1.46v-.08l-.09-.09v-1.15h.07c-.05-.12.13-.41.18-.52l.17-.06.06-.11s.54.1.58.09l.18.17h.84c-.18-.06-1.69,1.64-1.83,1.72.47,0,2.16-.08,2.55.21l.12-.12h.03l.09.09h.06v.43h.28c-.04.23-.18.7-.03.93,0,.07-.09.17-.14.22h0s-.81.81-.81.81h-.8l-.18-.18c-.26.02-.77-.36-1.04-.34-.04-.02-.3-.18-.33-.19-.06-.1-.14-.26-.12-.38ZM703.32,637.1l.06.06v.08h-.19l.13-.13ZM702.39,640.7c-.17-.1-.35-.15-.56-.18-.19-.13-.21-.44-.2-.64-.13-.09-.08-.88-.09-1.02h-.09v-.09h-.26v-.25h-.29v-.88h.42v-.3l.02-.02.42-.09.02-.02h.25l.09-.09h.48v.12h-.54l.54.54v.04l.02-.02.65.65v.55h.34c0,.41-.71.99-.96,1.26l.08.08-.36.35ZM702.82,643.13v-.3l.25-.24v-.09l.36-.36s-.4-.81-.46-.83h.63c-.08.47.28,1.06.49,1.46h.24l.09.09h.02v.09h.1v.11l.48.48h-.48v.25h-1.01v-.11l-.08.08-.62-.62ZM703.78,664.16l-.2.2h-.17s.24-.23.24-.28c.04-.01.1-.07.13-.1v.18ZM703.53,644.93v-.76h.27l.74.74h0s-1.01.01-1.01.01ZM711.91,658.62v.42l-.05.05h-.09l-.09.09h-.15c-.47.31-.74,1.06-1.23,1.47l.65.64-.52.53h-.04l.02.02h0s0,0,0,0l.37.37s-.62,0-.62,0v.11c-.33-.05-.64.09-.91.09l-.09.09c-.34-.03-.73.2-1.09.17l-.09.09h-.16c-.16.25-.5.31-.68.51h-.24l-.4.76h-.09v.08l-.06-.06-.17.17-.23-.12v.08h-.64l-.14-.14-.14.14h-.26v.09h-.08v.21s-.06.01-.08.02l-.08-.08.04-.04h-.09l-.48-.48h.23v-.39l.21-.11v-.16l.09-.09v.11s.45-.45.45-.45h.29v-.29l.22-.22h.8v.04l.04-.04h.65l-.19-.19h.35s-.32-.32-.32-.32l.34-.34h1.38s-.17-.16-.17-.16h.32l-.48-.48c.26-.25.67-.37.98-.58v.02c.58-.34,1.19-.75,1.74-1.18h.59v-.16c.05,0,.19,0,.25,0v-.44c.09-.08.29-.09.39-.08l-.27.27ZM713.27,657.57h-.05c-.05.07-.24.19-.31.23h-.21s.25-.14.3-.12l.19-.19.22-.02-.15.1ZM713.55,657.47l-.02-.02h.06s-.04.02-.04.02ZM716.72,661c-.08-.18-.09-.47-.16-.66h.16v.66ZM740.07,641.92l-.48.49-.06-.06-.26.26-.25-.33-.51.51c-.11,0-.72-.66-.8-.74v1.39h-.5v.34h-.08l-.08-.08-.08.08h-.28v.08h-.43v.35s-.48.17-.49.15c0,.02-.1.05-.12.05v.06l-.06.06h-.38v.22c-.04.06-.42.03-.48.04l-.8-.8v1.27l-.21.21h-.18l-.18.17c-.1.03-.26.12-.38.09l-.07-.05-.05.05h-.38l-.78-.78v.87h-.52l.17.17h-.44l.08.08h-.25l.26.26h-.95l.09.09h-.24l.18.18h-.14l-.52-.52v1.12h-.7l-.42-.42v.68h-.25l.25.26h0s-.87.01-.87.01l.42.42h-.69l-.27-.27v.35l-.09-.09v.68h-1.07l.18.18h-.32l.34.34h-.77l.51.51h-.88l.75.74s-.1.05-.11.07h-.08c-.17.15-.54.31-.76.34h0s-.09,0-.09,0l-.18.17h-.23v-.43l-.7.69h-.3v.09h-.17v.25h-.34v.34h-.53v.26h-.43s-.28,0-.28,0v.55s-.13.12-.19.14c-.02.07-.13.18-.18.23h-.23l-.13.25h-.36v.25h-.09v.24c-.09.09-.17.22-.25.26v-1h-1.37c-.07.4-1.35,1.56-1.62,1.84h1.45l.17.17c-.03.06-.11.24-.17.27v.05h-1.63l.79.79-.06.06h0l-.69.68h-.04v.04l-.09.09v.12h-.03v-.35h0v-.23h.39s-.41-.41-.41-.41h.04v-.26h.09c0-.52-.02-1.34-.02-1.85h-.33c-.17-.37-.51-.75-.8-1.04v-.08c-.1-.06-.3-.2-.37-.29h-.07c-.17-.23-.28-.38-.57-.5v-.12c-.37-.16-.77-.43-1.05-.7l-.2-.37h-.32c-.27-.21-.54-.31-.71-.59h-.22c-.12-.07-.4-.26-.54-.25l-.08-.06v-1.58l-.84.84c-.1-.05-.32-.27-.4-.35h-.09l-.09-.09h-.13l-.11-.21c-.3-.11-.54-.43-.48-.76-.23-.18-.44-.53-.47-.82h1.45l.09-.09h.34l.17-.17c1.84-.87,3.6-2.31,5.47-3.13h.08l.03.03v-.06l.15-.15c.29-.06.71-.43.9-.65h.56l.26-.26h.63v-.44h.35v1.03l1.21-1.2h.09l.17-.17c.19-.12.99-.1,1.22-.09v-1c.18-.12.97-1.15,1.24-.99.16-.25.72-.54.98-.65.06-.09.18-.14.29-.12.23-.25.57-.5.83-.7.19-.19.84-.15,1.07-.15v-.09h.17v-.1h.18s-.3.17-.32.19v.12h-.34v.09h-.09v.46l-.18.17v.75h-.28v.3c-.08.22-.69.12-.85.14v.09h-1.3l1.39,1.38v.39h.32l-.14.13-.03-.03v.06l-.52.51h.52v.19l-.25.25c-.05.47.13,1.17.09,1.63h.17c-.06.39.38.83.64,1.07h.85l.11.1v-.12c.33-.13,1.28-.52,1.62-.67l-.05-.05c.06-.03.17-.09.22-.12h.07l.41-.25.06.06c.33-.15.99-.52,1.2-.82v-.02c.98-.43,2.63-1.05,3.7-1.26l.76.76v-1.02l.17-.15v.65l.71-.7h1.56v-.41h.62l-.62-.62v-.52l.18-.13h.32s.68,0,.68,0v.33h.25v.08h1.18l.25.25v.25h.25v.16ZM744,640.08l-.04.04h-.19v-.19h.23v.15ZM752.95,634.22v.76l-.02.02h-.07v.07l-.18.18h-.93l.3.3-.19.2-.74-.74v1.12h-.17v.18h-.6v.09h-.17v.09h-.17v.09h-.09v.09h-.25v.09h-.17v.09h-.17v.18h-.25v.09h-.09v.17h-.26v.09h-.09v.34h-.09v.09h-.17v.09h-.25v.09h-.09v.18h-.14v-.28l-.45.45h-.03v.03l-.06.06h-.37v.09h-.08v.09h-.17v.09h-.09s-.78-.77-.78-.77v.78l-.35-.35v1.2h-.17v.09h-.49l-.76-.76v-.39h.72l-.72-.71v-.1h-.08v-.06h.26v-.32c.3-.23.91-.34,1.28-.34v-.04h.09v-.26l.84-.28v.04c.38-.17,1.15-.5,1.54-.64v-.03s1.25-.55,1.25-.55l.53.54v-.74s.22-.09.24-.07h0c.8-.26,2.25-.9,3.05-1.07l.02.59-.19-.19Z"/>
    <path class="cls-2" d="M731.41,345.57h.13c-.21-.4,1.08-5.15,1.18-5.66l5.07-.17c-.42-10-.75-20.09-.88-30.01h.02c-.02-.41-.03-1.23-.02-1.63h-.02c.04-.43-.9-27.65-.77-28.06h2.43l-2.38-1.56v-.07l-.81-.89h-.54v-.44h-.47l-.18-.18c-.31.08-.65-.21-.88-.39v-.22h-.09v-.17h-.55l-.42-.42h-.04v-.18c-.38.05-.83-.04-1.06-.38-.17.07-.59-.19-.73-.27l-.74.73c-.01.1.05,1.62-.08,1.63-.06-.01-.15.02-.19.05l-.05-.05h-.85l-.02-.09-.57-.57h-.32l-.33-.25h-1.09c-.15.26-.5.88-.4,1.2-.52-.28-1.1.23-1.45.58.02.17-.03.51-.08.68l-.24.12c-.47-.05-1.03-.34-1.53-.44l-.32-.32c-.11.3-2.81.15-3.07.18l.59.59h-.52l-.09.09c-.37,0-1.04.19-1.36.38l-.46.93.11.21c-.12-.05-.5.19-.61.24,0,0-.51.03-.51.03-.17.29-.51.91-.4,1.26.1.16.09.6.09.78l.87.43-.15.29h-.13c.07.19-.17.59-.26.75h.23l-.06.06v.2c-.3.34-1,.76-1.47.71-.11.12-.4.17-.55.17-.09.08-.31.1-.43.09v-.02s-.32-.32-.32-.32h-.18c-.15-.09-.47-.31-.6-.43-.31.04-.88-.31-1.1-.51h-.08l-.09-.09h-.97c-.12.07-.32.18-.41.25-.08,0-.45,0-.54,0l-.55.55c.07.23-.58,1.29-.53,1.52l-.09.09c0,.41-.14,1.08-.09,1.5l.09.09c0,.23-.13.4-.1.66l-.25.27v.22l-.14.16h-.33c-.07.05-.72.54-.76.59-.02,0-.05,0-.07,0,0-.28-.23-.61-.26-.91-.09-.19-.19-.43-.17-.64l-.33-.33v-.09l-.07-.07v-.42c-.66-.26-1.11-.81-1.6-1.3v-.53h-.34v-.51h-.28c-.06-.42-.45-.71-.61-1.06-.76-.53-2.14-.83-2.95-.26l-.07.14c-.59-.11-1.2.23-1.72.25l-.09-.17h-.25l-.19-.2-.02-1.12c-.21-.27-.33-.9-.6-1.15v-.12c-.51-.61-1.36-.97-1.98-.56-.26-.03-.57.14-.84.09l-.09.09h-.4v-.34h-.64c-.5-.5-1.52-.7-2.15-.97.39-.51,1.06-.98,1.68-1.14v-.24l.43-.43.09-.33.17-.17v-.92l-.09-.09v-.09l-.55-.55c-.79-.05-1.63.13-2.43.09-.52-.52-1.3-1.03-1.86-1.52h-.99l-.9.9c.04.34-.2.85-.35,1.14.02.21-.07.49-.09.7l-.42.42.42.42c.07.94-.38,1.99-1.14,2.56-.66-.04-1.76.59-2.43.45-.3-.53-.5-1.39-.51-1.99-.31-.41-.85-.7-1.23-.98-.9-.07-1.89-.45-2.77-.35-.28.07-.84.62-1.04.82v.09l-.09.09v.7c-.22-.19-.43-.4-.64-.65v-.28l-.09-.09v-.09l-.23-.23c0-.29-.35-.74-.29-1.03-.13-.08-.23-.31-.25-.42.25-.58-.27-2.12-.34-2.76l-.09-.09-.09-.42c-.27-.24-.83-.81-.93-1.16-.18.04-.48-.07-.63-.17,0,0-.69,0-.69,0l-.09.09h-.55v.31c-.11-.02-.56.45-.65.51l-.03-.09c-.21.05-.59.22-.74.38l.28-.81c-.41-.03-1.67.03-2.04.09-2.06,1.5.21,3.62.04,5.41l-.87-.86v1.67l-.33.42.05.05c-.4.41-.7,1.07-1.22,1.35l-.03-.39c-.94-1.77-3.6-.89-3.97.83.11.16.24.47.19.66l.55.56c.37-.03,1.1.05,1.47.15-.88-.01-1.72.72-2.12,1.45-.39.82.02,1.22-.11,1.89.49.38.67,1.02.69,1.61-.07.04-.04.61-.05.68-.03.1-.1.34-.2.39-.09.27-.32.55-.6.64l-.07.13h-.18l-.14.14c-.19.09-.69-.06-.87-.11l-.19-.19h-.33l-.18-.17h-.09c-.09-.08-.7-.48-.7-.61.01-.49-.43-1.06-.78-1.36v-.71s-.16-.15-.16-.15l-.02-1.08h-.39c-.26-.23-.56-.61-.55-.97l-.03-.03c.1-.27-.05-.54.12-.89.32.05.84-.06,1.1-.25,0,0,.69,0,.69,0v-.55l.25-.26v-1.67l-.09-.1c-.2-.9-.78-1.86-.75-2.77-.61-.91-1.39-1.1-2.07-1.9h-1.75l-.18.18h-.55v.48l-.3.04-.64.64v.5l-.09.09c-.02.54-.04,1.29-.16,1.82h-.33l-.09-.09h-.26l-.55-.63v-.23l-1.15-.82h-.65l-.42.41-.12-.09h-.82l-.64.64c.04.18-.08.49-.18.64,0,0,0,.92,0,.92-.18.72-.75,1.86-1.33,2.34h-.07l-.09.09c-.14,0-2.73.03-2.75-.05l-.06-.06-.73-.15c-.09-.08-.34-.31-.38-.42.16-.66.56-1.34.49-2.03.24-1.2,0-1.79-.53-2.73-.26-.14-.73-.49-.8-.8-.62.14-1.74-.86-2.23-1.12l.6,34.31c-7.8.35-16.94.28-25.14.59,0,7.96.31,21.97.33,30.05l-6.3-.07v-.02c-.4.01-1.19.02-1.59,0v.02c-1.68.1-19.49.06-21.67.06v3.87h-8.65c.02,9.7.26,22.37.34,32.07l6.6.1.16,14.01-4.57,2.78,14.17,23.45,4.54-2.69,2.61,4.29c5.92-3.58,15.35-9.39,21.37-12.97l-.29-.61,12.31-7.69h.09s0,.01,0,.01c.38,0,1.01,0,1.38,0l-.66.63v1.21h.09v.09h.55l.09.09h1.08l.24-.24v.08h.09v.22l-.17.17v1.29h.47l.17.17c.64-.08,1.29.07,1.75.55.75.36,1.82.67,2.66.56v-.4l.17-.09v-.24l.09-.09c.04-.33-.01-.94-.25-1.2l.09-.02v-.09c.19-.02.41-.09.62-.25h.56v-.5h.29s1.09-.73,1.09-.73l-.11-.18,21.27-6.03c2.51,4.02,6.66,10.95,9.19,14.86,9.81-6.09,21.8-13.49,31.48-19.7l.55.61v-.96l1.6-1c-.19-.3-.53-.95-.42-1.32h-.68l-.12-.09h-.66l-.09.09h-.07l-.22.22v-.4s8.23-.23,8.23-.23v.28c.97-.06,3.86-.27,4.79-.22v-.2l7.08-.26-1.26-33.28c1.92-.08,5.69-.2,7.61-.23v-.25h.05l.09-.17h1.01l-.44-.44v-.29l.78-.78h-1.29v-.17h-.3l-.44-.44-.15.28h-.06v-.25h-.55l-.05-.05v-.47h-.55l-.12-.12v-.86s.24,0,.24,0v-.26Z"/>
    <path class="cls-3" d="M591.41,483.66c-.35-.1-1.21-.32-1.57-.25l-.13-.39.17-.2.5-.03v-1.92h-.37l-.53-.67c.27-.11.72-.53.91-.75v-.09l.09-.09c.18-.65-.41-1.66-.73-2.18-.4-.27-1.07-.35-1.47-.62v-.3h.17v-.09h.29l.09-.09h.55v-.09h.09c.05-.66-.12-1.61-.09-2.27h-.09v-.07l.18-.23v-.77l-.97-.97-.42.42h-.08l-.07.07v-.57h-1.21l-.08.08-.12-.09h-1.29v.47c-.1.13-.16.28-.2.41-.12.06-.49.05-.63.05l-.24-.37h.15l.17-.17h.55v-1.26h.46c.13-.13.47-.46.58-.6h.4v-1.38l-.55-.55c-.24-.02-.74-.01-.93.17l-.47-.47v-.6l-.17-.17v-.63c-.24.03-.67,0-.85-.17-.25-.03-.7.03-.92.15l-.08-.05c.55-.98.3-2.11.17-3.14-.17-.08-.52-.26-.59-.45v-.16l-.17-.29v-.39l-.55-.55c-.27.05-.65-.23-.92-.18l.18-.09v-.75l.09-.09c-.02-.3-.03-.93.21-1.16l.38-.21v-.24l.09-.09c.08-.36-.18-1.13-.32-1.47-.36.03-.87-.14-1.24-.09l-.09.09h-.55v.39l-.32-.31c-.06,0-.66.01-.7-.03-.02-.72.36-1.48-.42-1.94v-.51h-.33v-.59h-.09v-.09h-1.29l-.41.41-.74.02v.47l-.26.26v.26l-.39.39h-.02c.17-.38-.04-.94-.03-1.32,0-.07.63-.25.68-.28v-1.06l-.17-.18v-1.48h-.09v-.09h-1.71l.4-1.27h-.4v-.09c-1.12.04-1.81-.62-2.7.46v.75l.36.36-.03.13c-.2,0-.37.07-.53.18v-.74h-.55l-.09-.09h-1.38v.25h-.46v-.4h-.09v-.09h-1.21l-.09.09h-.09l-.18.17h-.09l-.23.23-.16.02v-.18h-.17l-.09-.14v-.08c-.16-.06-.39-.83-.45-.97-.3-.34-.81-.7-1.12-1.03-.44-.08-1.33.16-1.74.32l-.17.33c-.05-.08-.71-.04-.79-.05l-.08.08h-.56v-.8l-.09-.09v-.55h-.55l-.17-.17h-.99l-.09.09h-.09l-.17.17h-.24l-.04.08c-.19.04-.41-.1-.59-.09l-.35-.37.21-.21v-.12l.3-.1-.3-.3,2.21-1.47-.06-.1,9.72-6.99c.16-1.06.86-4.07,1.11-5.15l5.98-1.12-16.27-27.41c-3.65.03-13.78.11-17.28.09h0s-29.68,0-29.68,0v.08c-2.81-.01-28.02-.2-30.03-.17h0c-.4,0-1.2,0-1.59,0h0c-4.96.22-27.68-.31-33.09-.41h0c-.39,0-1.2-.02-1.59-.03h0c-4.15-.05-22.46-.24-26.2-.33-.12,5.82-.52,33.58-.65,38.8h-.02c0,.4-.03,1.19-.06,1.59h.02s-.72,29.68-.72,29.68c-17.24-.12-48.06-.8-65.29-1.6v-.36h-.09v-.61c-.17.08-.74.44-.94.35v-.09h-2.28s0,.88,0,.88h.6v.09h.09c.05.14-.11.42-.18.53l.17.09v.1h.27v.09h.43v.17h.15v.28s.46.02.46.02v1.34l.78-.78h.46l.09.09c.24-.07.5.21.73.17l.24.16c-.06.47.66.97,1.04.87l.2.59h.25l.61.6h.25l.17.17c.14-.02.41.02.54.09.35.02.87-.14,1.23-.09l.07-.07v.76l.92-.93.06.06h.25l.06.06v1.4l.71-.7.54.54v-.17l.26.26v-.59c0,.09.14.23.21.29v.64h.08v.17h.18l.55.6h1.21v-.09h.09v-.09h.81s0,.25,0,.25h.26v.25h.51l.39.25h.64v.08h.55l.09.09h.09l.09.09h.09l.09.09h.83l.07-.08v.24h.69c.19.19.7.19.95.17.25-.18.98-.51,1.16-.75l.28-.02.09-.09h.13v.17h.42v.33h.25v.33h.55l.93.92c.25-.24.71-.81,1.1-.76l.06-.06v.31h.47l.05.05v.07l.33.17v.17l.43.22.08.86h.17v.34h.93v.42h.72l.09.09h.26l.04.04v.51l.23.23.03.32h.34v.35h.55l.09.09h.64v.17h.26v.53c-.17.26-.23.55-.5.71v1.24h.39l.11.11.02.41h.25v.09h.26v.18h.34v.26h.59v.13l.17.18v.08l.13.2.04,1.3c.1-.01.27,0,.34.07-.05.38.08.69.09.99l.23.23c0,.12.08.3.16.39l.04.78h.17v.64c-.38.33-.29,1.01-.03,1.39l-.41.41c.1.18.34.59.27.81l.09.09v.09l.09.09v.55h.64l.09.09h.41c-.06.32.1.74.07,1.06.09.08.28.28.31.39l-.05.05v1.01l-.09.09v1.21h.17v.17h.63l.18.17h.09l.43.43h.17l.09.09h.09l.18.17h.05c.04.09.14.31.17.35-.1.13.22.96.25,1.09,0,0,0,1.43,0,1.43l.94-.49v.23h.09v.09h1.68v-.17l.02.17h1.21l.1-.1.57.36h.13l.51.51h.09l.09.09c.21-.05.44.1.63.09v.26h.09v.09h.3l.24.24-.35.34.33.33v.54l-.25.26v1.46h.39l.04.29.17.18v.09l.09.09v.72h.09c-.07.19-.24.56-.42.67v.08l-.34.34v.1l-.34.18v.11h-.68v.55l-.09.09v1.15h-.17v.25h-.5v.25h-.09v.76h-.52l.15.29-.41.41-.41-.21c-.28.12-.89.31-1.2.24v.17h-1.21l1.12,1.12v.98h.61l.04.08c-.16.07-.3.47-.53.53l-.55.55v.17l-.17.17v1.21h.35v.52h.46l.44.44h.17l.36.35.32-.17.1.07h.29v.33h.09v1.35h.61c.14.26.47.71.79.78h-1.09l-.09.09h-.09l-.09.09h-.09l-.06.06-.93-.93v1.5l-.59.2v.23l-.09.06h-.13l-.09.09h-.55c.06.64-.14,1.15-.44,1.7l.17.17s-.19.35-.17.36c-.15.04-.26.12-.36.2l-1.1-.02c-.16,1.22-.73,34.27-.8,36.33l.89.82h.47v.34h.55l.09.09h1v.68h1.46l.23-.23.27-.07.46.46h.83l.09-.09h.55v-.08l.58.58h.91l.17-.17h.09l.09-.09h.09l.64-.64v-.12c.24.08.81-.21,1.03-.31l.14.14c.21,0,.53-.01.67.18.41,0,1.28.14,1.71.09-.03-.24,0-.67.17-.85.01-.43.01-.92-.06-1.16l.24-.24h0c.12-.04.26-.08.39-.15-.08.95-.16,2.08-.13,3.07h.63l.09.09h.69c.09-.04.63-.4.73-.34l.09-.09c.26,0,.56.14.88.09.25-.15,1.07-.78,1.39-.68.09-.3.44-.6.53-.88l.05-.03c-.07.28.12.79.25,1.03,0,0,0,.75,0,.75l.09.09v.09l.55.55h.09l.09.09c.4.02,1.09,0,1.38-.25v.62h.4l.09.17h.29l.29.26h.09c-.2.17-.13,1-.14,1.22.36.46,1.12.97,1.6,1.27-.12.19-.08,1.12-.09,1.34l.32.32.03.27.14.14c-.02.34.15.79.12,1.13l.63.63h.83l.63-.63v-.21c3.31-.07.65,1.65.86,3.61.03.3.2.76.17,1.06l.09.09v.11c.09.15.49.53.43.74l.55.55h.09l.09.09h.09l.42.41.41-.41h.09c.1-.13.35-.32.51-.38.14-.32.52-.89.8-1.1.05-.39.23-1.7-.02-2.08.01-.12.18-.33.26-.42l.08.13c-.44.86.07,2.52.27,3.39-.57.71-1.11,1.79-1.19,2.7l.85,1.53c1.2-.45,3.37-.36,4.56.08,0,.38.59,1.16.8,1.45,0,0,.7,1.09.7,1.09l1.11.63.65-.29.76.68c.37-.08,1.3-.29,1.67-.16.26.18.93.46,1.23.57.08.21.07.78.07,1.01,1.18.97,1.18,1.1,1.11,2.6h.26v.43h.4c.12.12.56.6.71.67v.14l.09.09v.17l.09.09v.37c.15.31.54.89.81,1.11h.14c.43.25,1.06.29,1.49.53.33.27.78.58,1.08.91h.9v.46l.55.55h.18c.15.09.45.32.59.43h.18c.11.13.5.44.64.55v.39c.36-.03.85,0,1.06.34h.42c.24.32.22,1,.23,1.38l.72.72c.2-.05.69.12.88.19v.33h.71c.03.07.83.63.9.69.14,0,.47-.01.59.06v.53c.29.02,1.16-.11,1.34.22v1.15c.24-.11,1.43-.77,1.62-.87l.08.53h.17v.09h.55l.09.09h1.29v-.09h.09c0-.19,0-.91,0-1.09h.14l.96-.96-.3-.3.06-.06v-.13h.09v-.42h.26v-2.26h-.43v-.12l-.11-.11c.05-.12.19-.33.28-.42v-.42c.12-.28.6-.32.79-.48h.42l1.13-1.13-.24-.24v-.87c.21-.27.19-.63.12-.95l-.17-.17.31-1.04-.14-.14c.02-.06.07-.19.05-.26h.26c.19-.56.25-13.84.24-14.85h41.73v-.17h.09v-.46l.18-.17v-.09l.09-.09v-.82l-.09-.09v-.25l-.32-.32-.03-.11c-.12-.11-.33-.34-.43-.47-.04-.32.03-.88.25-1.13,0,0,0-1.25,0-1.25h-.51v-.43c-.26.08-.73-.17-.94-.3v-.39h-.25v-.21l.84-.05v-.18h.34v-.8l.09-.09c-.05-.52.09-1.45.09-1.95l-.09-.09v-.59l-.23-.23-.03-.28-.09-.09v-.16h.09v-.6c.11-.09.71-.06.84-.06v-.09h.09v-1.38c-.24-.19-.16-.76-.18-1.02l-.61-.61c.04-.31-.12-.7-.09-1.01h.25c-.02-.27-.01-.84.19-1.05l-.09-.18.17-.17v-.83l-.09-.09v-.09l-.1-.1v-.43c.19-.29.83-.23,1.12-.23l.75-8.92,1.01.09.33-4.03,1.5.13v.4h11.24l.21-15.09c6.38.1,20.76.06,27.29.14l-.25-14.71,20.49-.16-.34-29.02c8.6-.02,23.76-.3,32.34-.38l.32-.32c.21-.04.78.11,1.21.06l.55-.56v-.08l.09-.09c.02-1.13.57-1.34-.47-2.3ZM393.77,525.13l.13.09h-.03l-.09-.09ZM393.33,524.91l.12.12-.07.04-.2-.2.15.04Z"/>
    <path class="cls-8" d="M864.05,426.26h-.95v-.71l-.09-.09v-.21h-.08v-.53h.09v-.55l.25-.25v-.09l.09-.09v-.17l.09-.09v-.15c.36-.42.45-1.16.43-1.69l-.55-.55h-.46v-.09h-.09c-.17-.24-.18-.68-.17-.97l-.55-.55h-.16c-.07-.05-.17-.13-.22-.19v-.26h.09v-.97l.09-.09c0-.32.14-.79.09-1.16l-.09-.09v-.55h-.43v-.25h-.33v-1.02h-.48c-.15-.17-.38-.36-.83-.34l-.42-.41h-.09l-.34-.25-.06-.53h-.09v-.09h-.09v-1.11h-.18v-.34h-.12l-.4-.4.1-.11v-.83l-.23-.23-.03-.16h-.13l-.04-.17h-.13l-.07-.07h-.05v-.1h-.21s-.13-.12-.13-.17c.13-.77-.63-1.45-1.14-1.94l-.5.5v-.25l-.65-.65-.36.36h-.21s0-.59,0-.59h-.42l-.18.18h-.26l-.19-.19-.02-.35c-.33-.22-.99-.5-1.39-.4l-.51-.98h-.14l-.12-.36-.34-.18v-.18s-.34-.32-.34-.32l-.03-.19-.09-.09v-.09l-.09-.09v-.17c-.12-.13-.4-.38-.54-.5,0-.16-.03-.3-.07-.41l.51-.97h-1.05v-.18h-.55l-.09-.09h-.42c-.31-5.88-1.07-20.16-1.44-25.87l.24-.07-1.16-22.3h-.25l-.67-11.48h.11s-1.43-27.06-1.43-27.06h.34c-.04-.74-.36-5.57-.3-6.18l.33-.33-.42-.42v-1.09l-.09-.09c.02-2.05-.58-10.69-.72-12.9h-.37v-.09h-.34v-1.02h-.55l-.09-.09h-.21v-.37l-.09-.09v-.56h-.55l-.41-.42-.89.88v.13c-.46.17-1,.43-1.51.35v.34h-.13l-.09.09h-.34l-.13-.24h-.11v-.22l-.55-.55h-.66v-.41c-.46,0-1.06.06-1.51-.11l-.23-.23h-.91c-.11.28-.41.79-.62.99l-.09-.06c-.37,0-.85-.05-1.11.2-.22-.58-.89-.72-1.49-.59-.09.15-.39.28-.56.32-.16.15-.34.32-.47.48v-.09h-.09v-.09c-1.47-.21-2.5.42-2.8,2.01h-.1l-.09-.12v-.09c-.13-.18-.66-.52-.85-.64h-.86c-.13.18-.64.51-.83.63.07-.42-.18-.93-.38-1.29-.28-.21-.83-.36-1.17-.29l-.75.83h-.32c-.17-.34-.61-.99-.9-1.25h-.09l-.09-.09c-.09,0-.33,0-.41-.04l.47-.47h-.96v-1.1c.33-.32.23-.91.25-1.33l-.56-.56c-.35-.17-1.41-.17-1.79-.17v.09h-.09v.42c-.24-.02-.71,0-.9.17,0,0-.77,0-.77,0v.84l-.02-.35c-.16-.12-.4-.49-.5-.67l-.08.08-.06-.06c-.17.07-.59-.2-.73-.27l-.25.26v-.61l-.23-.23-.02-.49h-.74l-.49-.49h-.67c-.07-.24-.22-.41-.38-.56v-.54h-1.92v.34h-1.24c.26-1.11-1.11-1.39-2.09-1.26v.55h0c0-.08-1.2-.03-1.26-.04v.46l-.14.22h-.11s-.34,0-.36,0c.02-.28-.02-.66-.18-.86l.08-.08v-.75l-.73-.73h-.47v-.51h-.48c.17-.24.1-1.09.12-1.37h-.09v-.17h-.09v-.09h-.55l-.17-.17h-1.16l-.09.09h-.55v.69c-.1.2-.2.46-.18.69l-.21.14-.22-.22v-.08l-.26-.26c0-.29,0-.7-.26-1.06v-.5h-1.21l-.09.09h-.63c.06.3-.08.78-.26,1.02,0,0,0,.95,0,.95l.07.07c-.08,0-.5.01-.57-.02l-.04-.3.09-.09v-.83l-.09-.09v-.24c-.21-.09-.57-.32-.72-.49h-.83l-.26.26c-.06-.18-.99-.48-1.14-.55-.08-.13-.26-.41-.36-.52.13-.44.54-1.19.93-1.45l-.42-.42v-.09c-.25-.21-.29-.55-.6-.77v-.47h-1.85v.02l-.13-.13c-.12,0-.37,0-.46-.09v-.08l.16-.16-.48-.48c-.13-.26-.12-.96-.11-1.24h-1.4l-.08.09h-.53v.26l-.68-.5h-1.01c-.08.03-.71.39-.79.33v-.44l-.08-.09v-.11c-.13-.17-.55-.46-.73-.58l-.03-.83h-.2c-.06-.12-.19-.38-.15-.52.06-.7-.36-.94-.64-1.26-.12,0-.68-.02-.78.05l-.24-.24h-.09l-.27-.27c-.48.23-1.12.5-1.48.93.04-.36-.13-.85-.09-1.21l-.25-.13v-.36h-.63l-.09-.09h-.91l-.09.09c-.31-.02-1.12.12-1.28-.26h-.09l-.68-.6c-.61.07-1.95-.59-2.52-.6v.18h-.8s-.09.08-.09.08h-.64v1.01h-.17v.47c-.11-.01-.36.28-.43.34l-.51.04v.63l-.09.09v.7h-.64l-.64.64v.09l-.25.27c.02.54.15,1.17.01,1.71l-.53-.53h-.26l-.11-.11-.22-.04-.71-.71.03.52h-.85l-.63.63v.15l-.57.57h-.28l-.09-.09c-.46-.04-.84.06-1.19.09-1.05.44-2.2.18-3.38.08v-.71l-.55-.55h-.61l-1.13.76h-.13l-.09.09h-.09l-.09.09v-.38s-.35-.34-.35-.34v-1.58l-.46.46v-.1h-.09v-.09h-1.68v.09h-.09v.55l-.04.04v-.28l-.09-.09v-.26l-.09-.09v-.09c-.24-.17-.38-.48-.35-.76-.18-.12-.4-.53-.49-.72-.39.02-.98-.14-1.38-.09l.02-.07c-.12-.03-.41-.11-.54-.11l-.61-.52h-.75l-.55.55c0,.1.03.55-.05.63h-.08l-.17.17h-.27l-.22.34h-.48v.09h-.25v.63l-.11.11-1.57.04-.39.25h-.12l-.36.34h-.47v.42h-.26v.54c-.14.1-.5.14-.66.15l-.41-.3v-.29h-.63l-.09-.09h-1.61l-.14.14-.76.03v.17h-.09v.42h-.26c0,.11-.04,1.16.07,1.22-.11.05-.06,1.16-.07,1.26l-.58-.53c-.14.04-.57-.13-.71-.18,0,0-1.44,0-1.44,0v.18l-.14.09h-.09l-.55.55c-.04.29.06.75.09,1.03h0s-.16-.14-.16-.14h-.74c-.26.14-.7.51-.9.72v.33l-.18.18v1.29h.11l.72,23.32-.34-.34c.12,4.92.26,14.62.41,19.64h.09c.22,4.51.23,10.14.52,14.62l-4.68.16c-.17.68-1.22,5.04-1.39,5.6h-1.21l.82.9-.11.11h-.22v.22l-.86.87h.69l-.37.41.38.38v.17l.74.74.02.48h.17v.17h.47l.1.1v.11c-.58,0-5.55.2-6.27.22l1.25,33.04-7.82.28v.15l-1.6.1v-.22l-13.6.38v.07h-1.22l1.13,1.13v.51l.09.09v.55h.39l.26.25h.41v.17h.17v.17h.17v.41h1.36v.25h.55l1.21,1.21v-1.34l.09-.09c.29.17.85.68,1.09.92h.08l.09.09h.21v.34h.51v.18h.35v.17h.82c.19.14.36.16.53.17v.18h.33v.18h.68v.26h.42v.34h.25v1.52h.25v.84h.55l.09.09h.5l.1.08h.22v.16h.44v.09h.12l1.39,1.39v-1.1l.52.53v.22h.35v.59h.43v.34h.34v.34h.43c.12.21.57.55.76.69v.18h.5v1.09l.09.09v1.14h.34v.09h.25v.12l.63.63h.17l.41.42.39-.39c.08.04.3.18.4.14l.09.09h1.21v-.2l.29-.1c-.14.33-.51.95-.8,1.17l.42.42v.42l.04.04c-.27.3-.21,1.36-.21,1.73l.58.58.02,1.16c.51,0,1.52.1,1.86-.41l.43-.02v.19l.08.04v.78h.23l.04,1.66.17.17c0,.26.06.51.34.77v.55h.09v.09h.13l.06.06v.39l.06.06h-.47v.35h-.18v1.65l-.62.62h.78v.66l.09.09v.55h.51l.22.42h.37v.17h1.42c.07.18.2.34.35.45v.5h-.69l.62.61-.09.16h-.27c.07.94-.33,1.51-.26,2.48l.09.09v.09l.09.09v.55h.55l.09.09h.91l.1-.1.36.35h.18c0,.16-.21.4-.32.5v.74c.18.12.4.53.49.72h.33l.09.17h.12c.07.13.11.4.09.54l.09.09c-.05.18.08.4.09.57-.09.1-.1.33-.09.45-.09.08-.25.28-.33.38.06.14-.21.57-.27.69l.42.41.02.57h1.21l.22-.22.74.74h.46v.34h.09v.09h.85l.12.18s1.01,0,1.06,0v.37l.55.55h.75l.09-.09v.83l.09.09v.55h.25v.42h-.26v1.53c.25.06.72.57.9.74h.21v.42h1.28l.49-.65.39-.02.59.6h.19l.11.19v.2l.55.55h.09l.09.09h.09l.42.42h0s.05.05.05.05v.26l.08.08c-.06.13-.31.54-.25.69l-.09.09v.61c.12.16.22.48.17.67l.2.05.02.04h.13c.11.17.3.52.24.73.66.79,1.12,1.57,2.31,1.4l.09-.09h.17l.89-.88-.05-.04.14-.14v-.5l.26-.26c.07-.35-.09-.91-.3-1.19l.12-.36c.28.27.55.7.45,1.1l.31.16.06.12c-.05.07-.04.34-.04.43l-.09.09v.09l-.17.17v.26l-.17.17v.13h-.52v1.21l.36.36-.73.73-.34.02-.09.09h-.55v.25h-.09v1.14l-.25.25v.75l.09.09v.55h.68v.52h.51v1.67c1.38-.46,5.92-2.01,7.26-2.33l-.31-1.02c6.36-1.29,14.3-2.97,20.68-4.13v.22h.26v.35c.36-.04,1,.02,1.29.27l.18-.18h.23v.09h1.75l.54.54v.51l.25-.26.5.5v-1l.28-.28h.31v-.31l.03-.03v.59l.6-.59v.15h.55l.04.04v.48h.24l-.16.3.35.35v1.06h.09v.09h.63l.16.17.16-.17h.14s0,.09,0,.09h.09v.43h.69v.17h.17v.09h.09v.26h.44v.18h.17v.28h-1.38l.94.95c.06.15-.21.63-.27.77l.41.41.02.49h.18v.19l.08-.08v.31h.21l1.54,1.71v-1.19l.03.17h1.38s0,.67,0,.67c.07,0,.32-.02.38.05l-.56.56h1.22v.61c.2-.09,1.22-.72,1.45-.61v.5h.09v.09h.43v1.64c1.64-1.54,7.84-7.39,9.38-8.78h.21l-.1-.1.35-.32-.58-.59-.02-.41h-.23l.52-.52h-1.41c-.11-.13-.25-.23-.39-.28.27-.93,0-2.02-.2-3.03l-.93.49-.9-.9v-.52l-.09-.09v-.17c-.05-.05-.27-.24-.26-.32h.53l-.61-.61v-.22h-.09v-.17h-.31l-.21-.21v-.46h-.09v-.5h-.53v-1.27h-.08v-.37l-.09.1v-.4l1.03-1.04h-.91l-.55-.55v-.91l-.26.26v-.06l.08-.11v-.16l.18-.17v-1.29h-.33l.46-.46h.2l.16.16.41-.42h.55v-.25h.17v-1.85h-.17v-.25h-.09v-1.22l-.95.95-.09-.03v-.14h-.55l-.04-.04h.09v-.61l.08-.04v-.12h.33v-.17h0s0-.33,0-.33h.08v-.26h.17v-1.15l.26-.26v-.05h1.22l-.34-.34h.25l-.07-.07c6.25-.17,19.04-.81,25.37-1.17v.43l.24-.24v.32l.57-.56h.06s.66.67.66.67l-.91.92h.41l-.34.34h.77l-.6.6h1.31v.54h-.08v.09h-.09v.17h-1.05l1.05,1.05v.46h.43v.44h.25v.43l-.77.78h1.29v1.09l-.13.13h-.99l1.03,1.03-.09.17.27.27v.91l.18-.18v.07l-.88.88h1.21v.09h.09v.17h.09v.12h-.96l.96.95-.86.9h1.38v.12c4.74.37,14.25,1.06,18.99,1.38.52.18,6.97,3.74,7.43,3.2l.23-.23.28-.02c.23-.23.86-.89,1.15-1.03h.14l.09-.09h.63v-.09h.09v-.17h.29l.09-.09h.33l.27-.79.49-.38v.16h.25v.69c.06,0,.82-.48.89-.43l.59.59.15-.15h.98c.12.11.26.21.47.24v.1h.3l.27.27.68-.36-.17-.7h.51v-.66l-.17-.17v-.19l.23-.24h.81v-.52h.16v-1.21l-.02-.02,1.14-1.14ZM851.56,407.4h-.02s0,0,0,0l.02-.02h0ZM822.7,294.5v-.09l.03-.03v.56l.08.12-.5-.17.39-.39ZM822.12,295.05l-.04.04h-.05s.09-.04.09-.04ZM751.86,272.04s-.14-.1-.14-.1l.14-.55v.65ZM797.41,433.57h.32c-.08.09-.2.16-.32.18v-.18Z"/>
    <polygon class="cls-3" points="666.28 712.79 666.2 712.88 666.2 712.96 666.28 712.96 666.36 713.05 666.36 712.96 666.44 712.96 666.44 712.88 666.53 712.88 666.44 712.79 666.28 712.79"/>
    <polygon class="cls-3" points="667.12 713.38 667.12 713.3 667.03 713.3 667.12 713.47 667.12 713.38"/>
    <polygon class="cls-3" points="667.45 713.3 667.37 713.21 667.37 713.3 667.45 713.3"/>
    <polygon class="cls-3" points="667.37 713.21 667.29 713.13 667.21 713.21 667.29 713.21 667.37 713.21"/>
    <polygon class="cls-3" points="666.95 713.05 666.95 712.97 666.86 712.97 666.95 713.05"/>
    <polygon class="cls-3" points="666.86 712.88 666.78 712.88 666.86 712.96 666.86 712.88"/>
    <polygon class="cls-3" points="665.94 712.29 666.03 712.29 666.03 712.04 666.11 712.04 666.11 711.79 665.94 711.79 665.94 712.29"/>
    <rect class="cls-10" x="667.03" y="712.04" width=".09" height=".17"/>
    <polygon class="cls-3" points="667.79 711.53 667.87 711.53 667.87 711.45 667.79 711.45 667.79 711.53 667.71 711.53 667.71 711.62 667.79 711.62 667.79 711.53"/>
    <polygon class="cls-3" points="673.34 695.07 673.34 694.98 673.16 694.9 673.16 695.07 673.25 695.07 673.34 695.07"/>
    <rect class="cls-10" x="673.34" y="694.65" width=".08" height=".08"/>
    <rect class="cls-10" x="673.25" y="694.73" width=".09" height=".09"/>
    <polygon class="cls-3" points="672.74 694.48 672.66 694.56 672.74 694.56 672.74 694.48"/>
    <polygon class="cls-3" points="673.92 694.48 673.92 694.32 674.01 694.32 674.01 694.23 673.84 694.23 673.75 694.32 673.75 694.4 673.84 694.48 673.92 694.48"/>
    <path class="cls-3" d="M669.89,703.64h-.17v.09l-.08.08-.17.09v.08h-.09v.51h.25s.12-.13.17-.17v-.09h-.09v.09h-.08l.08-.09v-.25h.09v-.08h.09v-.09h-.09v-.08h.08v.08l.09-.08h-.08v-.09Z"/>
    <rect class="cls-10" x="667.04" y="714.98" width=".09" height=".09"/>
    <polygon class="cls-3" points="674.4 700.02 674.4 700.11 674.48 700.02 674.4 700.02"/>
    <polygon class="cls-3" points="667.13 714.98 667.21 714.98 667.13 714.81 667.13 714.98"/>
    <polygon class="cls-3" points="667.62 709.87 667.62 709.86 667.61 709.86 667.58 709.83 667.58 709.9 667.54 709.94 667.37 709.94 667.29 710.02 667.2 710.02 667.12 710.27 667.2 710.36 667.2 710.52 667.29 710.61 667.29 711.2 667.37 711.28 667.37 711.2 667.37 710.52 667.29 710.44 667.29 710.1 667.37 710.1 667.45 710.02 667.54 710.02 667.61 709.95 667.67 710.01 667.75 710.01 667.75 709.92 667.67 709.92 667.62 709.87"/>
    <path class="cls-3" d="M670.14,699.69v-.09h-.08l-.09.09h-.08v.08l-.09.09.17.17h.42v-.09c.07-.04.14-.18.17-.25v.08h.17v.17h.17v.09s.13-.13.17-.17h.09v-.25c-.43-.03-.66.04-1.01.09Z"/>
    <path class="cls-3" d="M673.44,699.01l.09-.09-.09-.09c-.34-.02-.6.24-1.02.17l-.09.09h-.25l-.09.09h-.17l-.17.17v.09h.09l.07.06.09.09h.09v.09l.09.09h.09l.17-.17c.16.04.36-.08.51-.09v.17l.09.09c.12-.02.27.09.34.17.12.02.27-.09.34-.17h.09l-.17-.67-.09-.09Z"/>
    <polygon class="cls-3" points="673.92 694.65 674.01 694.65 674.09 694.56 674.01 694.56 673.92 694.65"/>
    <polygon class="cls-3" points="669.81 704.06 669.81 703.97 669.72 704.06 669.81 704.06"/>
    <rect class="cls-10" x="671.57" y="703.89" width=".09" height=".09"/>
    <rect class="cls-10" x="671.48" y="703.8" width=".09" height=".09"/>
    <polygon class="cls-3" points="671.65 703.72 671.74 703.72 671.65 703.64 671.65 703.72"/>
    <path class="cls-3" d="M672.66,700.95l-.09.09c-.02.15.04.44.09.58l.08-.17-.08-.08v-.42Z"/>
    <polygon class="cls-3" points="673.08 700.45 673.16 700.53 673.16 700.45 673.08 700.45"/>
    <polygon class="cls-3" points="673.25 700.53 673.25 700.45 673.16 700.53 673.25 700.53"/>
    <path class="cls-3" d="M672.66,700.45h.08l.09-.09h.17v-.17h-.08c-.06.05-.2.2-.25.25Z"/>
    <path class="cls-3" d="M671.23,697.67h.34v-.25l-.17-.17c-.12.09-.2.27-.17.42Z"/>
    <polygon class="cls-3" points="671.57 696.16 671.57 696.25 671.65 696.33 671.65 696.25 671.57 696.16"/>
    <path class="cls-4" d="M678.7,665.99c-2.03.51-6.09,1.12-8.13,1.42v1.33l.15.08-.23.23v1.29h.34v.17h.17v.25h.33v.33h.26v.34h.22l.77.76c.16-.03.36.06.51.09l.26.26h.46v.25h.56l.04.04v.56h.09v.09h.09v.09h.8l.09.09h.93l.25.25-.08.08h.15l.55.55v.71l-.33.33.3.3-.73.72.68.68v.47h.43v.16l-.15.15-.02-.02h-.42v.31l-.17-.19v-.24h-1.38v1.08l-.77.78h.67v.29h-.43v.09h-.17v.18h-.68v.09h-.09v.35c-.57-.07-1.16.44-1.74.34l.04.04v.24h-.2v.09h-.17v.09h-.09v.55l-.05.05h-.78v.24h-.44v.26h-.1v-.54c-.26.14-.94.55-1.25.44-.27-.07-.61-.34-.89-.32l-.21-.21v-.3c-.52.15-1.89-.47-2.37-.65l-.07.51h-.26v-.35l-.83.83-.19-.19v-.77l-.64-.64c-.22.03-.61-.02-.8-.09v-.68h-.2c-.04-.1-.08-.27-.06-.38l-.64-.64h-.75c-.07-.08-.27-.22-.23-.35-.06-.08-.11-.24-.09-.34-.17-.19-.2-.62-.18-.85h-1.07c-.13.08-.41.21-.56.17l-.09.09h-.55v.16h-.92v.53l-.33-.17c-.06-.04-.03-.47-.04-.53h-.31l-.09-.25h-1.53v.58h-.72v-.54l-.35.35v-.66h-1.21l-.03.03c-.08-.04-.04-.71-.05-.78h-.86v-.43h-1.19v-.39l-.34-.1v-.82h-.55l-.42-.42-.97.97v.13h-.11c.57-.94,8.58-13.67,8.85-14.28l-.75-.75h-.25l-.51-.52h-.1l-.51-.51h-.42l-.09-.09h-.09l-.09-.09c-.18,0-.64-.02-.79.08l-.41-.42h-.83l-.23.23h-.82s-.19-.18-.19-.18l-.02-.83h-.09v-.09h-.6c-.05-.07-.09-.2-.07-.28-.62-.38-1.48-.68-2.21-.58l-.09.09h-.16v-.6h-.09v-.09h-1.62v-.78l-.26.14c.05-.39-.09-.98-.09-1.35l-.06-.06.05-.05v-.75l-.08-.08v-.9h-.32l-.02-1.99-1.05,1.06-.44-.43c-.15,0-.79.04-.89-.09-.19.04-.41-.12-.59-.09v-.09h-1.06l-.06-.07h-.29l-.09-.09h-2.34l.09.09h-.17v-.44h-.67v-.09h-.25v-.09h-.09v-.17h-.85s0,0,0,0v-.5l.95-.95h-1.21v-.94l.51-.51h-1.34l-.05-.05v-.32l-.25-.13c.02-.14-.13-.29-.09-.44h-.09l-.31-.36-.03-.66h-.09v-.93h-.17v-.42h-.6v-.35h-.4l-.03-.25h-.26v-.25h-.09v-.68h-.1l.6-.6h-1.58l-.11-.11-.02-.49h-.52v-.09h-.54l-.43-.44h-.17l-.41-.41-.65.65-.94.13-.33-.33v-.28h-.28l-.16-.16-.16.16h-.2l-.09-.09h-.17l-.09-.09h-.16l-.09-.09h-.17l-.27-.27-.33.18-.24-.24h-.22v-.26h-.26v-.16l.52-.52h-.52v-.7l-.69.69v-.08h-.29l-.13-.13v-.3h-.3l-.09-.09v.09l-.1-.17h-.39l-.12-.34h-.65v.32s-5.01,2.03-5.02,2.04l-5.3-5.99.03-.03-5.74-6.48c9.31-8.05,18.51-16.15,27.79-24.11-2.29-2.52-5.9-6.62-8.27-9.14l1.55-2.39c-3.6.03-13.08.11-16.55.09l-1.09.66v-1.02h-.44v-.69h-.09v-.68h-.09l-.1-.14c.01-.13,0-.36-.09-.46h.33v-.43h.14l.89-.89-.33-.33v-.13l.15-.15c.04-.31-.04-1.06-.09-1.34l-.17-.17v-.55h-.21l-.04-.04v-.55h-.59v-.18h-.65l-.17-.17h-.75l-.17.18h-.23v-.41h-.09v-.42h-.09v-1.2l-1.18,1.17s-.07-.08-.1-.12v-.49l-.44-.15v-.59h-.09v-.09h-.17v-.17h-.26v-.17h-.46l-.56-.56v-.75l-.55-.55h-.05v-.17h-.47l-.26-.26h-.33l-.09-.09c-.41-.05-.7.07-1.01.09l-.09.09h-1.07v.16l-.11-.11v-.2h-.17v-.17h-.71l-.11-.11-.03-.91h-.09v-.21l-.18-.17v-.46h-.25v-.29l-.09-.09v-.63h-.09v-.09h-.77v-.09h-.17v-.42c-.07,0-.81.02-.85-.03.13-.1.08-.81.09-.95-.17-.11-.3-.4-.39-.56l.22-.3v-1.21c-.7.14-1.33-.33-1.74-.85h-.38c0-.18.04-.95-.08-1.09l.06.06h.77c.15-.07.56-.31.73-.25l.73-.73v-.33l.09-.09v-1.54h-.63l-.22-.22v-.55h-1.85v.21l-.23-.06s-.15-.16-.22-.17v-.09h-.12l-.39-.39v-.13h-.12l-.62-.62v.27l-.08-.08h-.74c-.23.19-1.19.48-1.49.44v.5h-1.15l-.11.11-.1-.19h-1.07l-.23.23-.08-.04v-.1c-.35.05-.89-.1-1.22-.09l-.09-.09h-.09l-.09-.09h-.09l-.09-.09c-.29.04-.6-.26-.9-.17v-.5h-.09v-.09h-.18v-.19h-.09v-.09h-1.38l-.17.17h-.47v.42h-.68v.17h-.43c-.12.21-1.67.08-1.87.1v.42h-.13l-.09-.09h-.75l-.04.04-.26-.13-.17-.49h-1.53v.33h-.6v.43c-.24.09-.81.29-1.06.26l-.17.17h-1.14v.39l-.19.19-1.18-1.18v.99l-.73.73-1.04-.02-1.12-1.12v.96c-1.91-1-5.81-2.95-7.76-3.88-.3-7.7-.42-17.32-.4-25.03-6.54.08-16.44.32-23.02.4-.04-2.52-.11-8.09-.09-10.56-7.41-.11-21.61.03-28.87-.2l-.17,15.15h-8.88v.46h0c-.09-.18,0-.87.01-1.06l-3.82-.32-.33,4.03-1.01-.09-.76,9.05h-.49v.45l-.44.39-.49.02c-.04.55.07,1.43.09,1.97l.14.14-.15.45c-.09.11-.55.08-.67.08v1.38c.13.09.2.27.18.43.27.36.59,1.46.52,1.91h.42l-.32.32.1.1c-.32.22-.67.94-1.04,1.19v.74l.33.33v.17l.09.09v.17l.09.09v.25l.23.23.03.22-.25.25v.17l-.09.09v.64h-.09v.09h-.11l-.16.32-1.13.4.18,1.07-.2.38c.1.05.38.22.5.18v.84h.39l.04.52h.55l.09.09h.17l.14.14-.35.35v.91c.19.12.81,1.08.95,1.27v.16s.09.09.09.09v.08h-5.18v-.16h-36.49l-.09,14.75c-.03.14-.09.52-.09.66l-.26.26v.09l-.09.09c.04.3-.05.85-.09,1.13h-.17c.03.36-.07,1.35.07,1.69h-.07c-.01.06.03,1.2-.02,1.26h-.27c-.27.39-.91.46-1.34.42l-.32.32-.32.02c.01.23-.07,1.18.14,1.35-.05.12-.15.41-.23.52,0,0,0,.86,0,.86l.18.18v.17l.17.17v.22h-.09v1.06l-.3.3h-.09c-.11.11-.54.53-.61.65-.92-.33-1.69.3-2.43.73l.24.46c-.08,0-.04.99-.05,1.05l.09.09v.09l.56.55h.4c.07.13.15.24.22.34-.11.16-.09.7-.09.88l.09.09v.55h.58c-.14.09-.47.61-.57.75v1.2h.39l1.84,1.83v.15c.08.04.36.17.41.25v-.04l.26.22v.09c.08.09.47.44.49.56l.27.11v.4s.84-.02.84.03v1.43l1.04-1.04h0c.15.12.49.21.5.36.01.12.14.31.22.4-.06.28.1.83.22,1.09l-.07.2c.2.56.03,1.53.2,2.09l-.14.14c.21.51.44,1.18.48,1.71l.17.17v.17l.14.14c.16.4.12,2.05.12,2.5l-.09.09c.05.58-.11,1.52-.08,2.08.17.17.62.59.67.83h-.06v1.21l.44.44v.16l.09.09v.55h1.47s.1.1.1.1h.09l.09.09.04.38.32.32.02.62.41.41c-.07.24.32.88.42,1.08h.24l.25.25h.09l.07.07-.31.87c.18.14.34.39.29.63l.17.18v.47h1.53v.09h.1c.04.41.2.82.76,1.13,0,.1.02.21.03.32l-.29.29v.99l.09.09v.09l.23.23-.05.05v.99l.64.64h.46v.46l.47.47c-.11.39-.04.75.01,1.02l-.31.21c-.02.24.04.72.09.95-.01.35,0,.96.17,1.26-.01.24.15.54.26.76-.04.32.25.63.17.98l.73.73c.24-.02.7,0,.89.17l.2.38c.24.14.94.51,1.11.72h.39c0,.14.03.51-.09.61-.04.07.22,1.47.24,1.58h.4l.09.09h.29v.21c.19.24.66.59.93.72.32-.01.81.23,1.06.42h.12v.07s-.44.05-.44.05v.72l-.25.26v.09l-.09.09v.09l-.09.09c-.03.48.14,1.22.09,1.71h.35l.31.77h.24l.18.17h.1c.2.27.24.87.21,1.19.34-.02.9,0,1.19.18.22-.05.65.19.86.17l.45.29h-1.06v.47l-.26.26v.83l.51.59v.09c.38.4,1.33.99,1.35,1.61l.09.09c.08.69-.17,1.55-.76,1.96v.78c.19.35.48.9.42,1.31.42.31,1.21,1.26,1.52,1.7.16.46.14.85.51,1.32v.17c.4.33,1.08,1.27,1.41,1.67.1.36-.23.79-.26,1.15l-.22.22v1.08l.09.09v.09c1.26,1.13,1.82,2.44,3.19,3.43h.09l.09.09c.41.04.96-.13,1.36-.09-.01.21.13.47.16.66h-.81c.06.16.69,1.21.6,1.37.07.08.61.56.59.67.62-.08,1.54.07,1.95.61v.08l.09.09v.55h.7l.28.25c.12,0,1.22.03,1.29-.06.04.08.34.21.42.25l.03.19c.5.34,1.29.48,1.64.72.31-.05.71.09.97.26-.06.12.21.49.25.59v.46c.14.03.46.39.55.49l.04.29.09.09v.24c.2.08.56.3.7.47-.2.63.32,1.66.98,2.07.37.23,1.03.39,1.39.63.19.16.14.85.14,1.06l.09.09v.16l.09.09c-.03.27.07.8.26,1.01-.02.55.44,1.05.65,1.53.25.72.68.9.55,1.63h.69l.71.59.16-.16c.32.05.97.21,1.27.33l.2-.1.63.04c-.04.36-.3.76-.43,1.17v1.15l.09.09v.08l.48.48-.92.92h1.55v.6c.38-.04.86.03,1.18.23v.28h.31c.03.08.07.15.1.22-.03.17-.47.57-.58.69v.33l-.09.09c0,.14-.04.68.09.78-.01.19.14.43.09.63l.09.09v.15l.31.24.02.58h.57c.32.21.71.31.59.76-.09.4-.12,1.18.19,1.55l-.24.37v1.14l.17.09v.4c.5-.06,1.2.14,1.65.1.35.52.31,1.25.29,1.84h.47l.34.34c.47.06,1.17-.09,1.61-.17.12.19.14.82.15,1.04.09.08.28.28.34.38v.6h.55l.34.34h.09l.09.09h.91l.14-.14.33.4.03.54.59.59v.09c.59.47,1.11,1.27,1.52,1.85v.33c.19.18.37.56.57.74.28.17.79.58,1,.83h1.08l.46-.46c.12.1.39.13.54.11v1.69c1.35-.02,2.96,1.41,4.05-.16h.21c.07-.05.24-.16.33-.17v.3l.09.09v.55h.43v1.16l.55.55h.09l.09.09h.83c.24-.27.66-.49,1.03-.37l.2-.2.17.09c.33.87.37,1.62,1.25,2.18-.01.09-.02.63-.07.69-.3.71,0,1.44-.38,2,.09.94-.24,1.91-.17,2.84h.56l.09.09h1.71v-.17l.14.09h.31l.15.12-.07.04v.79c-.08.24-.53.78-.7.97.04.4-.12.95-.24,1.33.07.12.2.36.16.51.07.17.31.72.25.91.23.39.12.95.09,1.37l-.17.19v.93l-.68,1.02c.04.13-.11.26-.09.38l-.17.21c0,.23-.04,1.15.1,1.34l-.45.39h-.66v.09h-.5v.48l-.34.18v1.7h.42v.42h.55l.09.09c.26.07,1.53.11,1.84.09l.08-.07c.03.06.11.2.14.26-.16.27-.32.66-.57.88-.18.81.6,1.58,1.15,2.06h1.46v-.31s.48-.13.51-.12c.13.16.36.5.4.7-.11.39-.29,1.23-.26,1.62.13.1.08.71.09.85h.09v.09h.55l.04.04c-.08.38.18.71.17,1.07.2.59.36,1.03.07,1.69h-.58v.56l-.09.09v1.07c.17.14.35.41.49.58l-.07.26.14.14c-.12.22-.44.74-.64.89v.17l-1.21,1.21h1.51l.32.32-.02.23c-.77.56-1.41,1.33-1.26,2.35.26.14.44,1.11.52,1.36l-.22.22c-.03.7.47,1.15.76,1.63.16.05.48.35.6.47h.17l.09.09h.75l.09-.09h.09l.1-.1c.1.56.97,1.43,1.37,1.8l-.21.12c-.93,1.21.11,2.91,1.19,3.65.83.46,2.16.49,2.93.89.15.07-.37,1.84-.65,2.16.41.36,1.07,1.24,1.44,1.66,2.53-.29,2.55.89,2.98,2.96,0,0,1.22,1.88,1.22,1.88l.18,3.11,1.97,1.4c-.23,1.12.22,3.47.54,4.56.05.1,1.46,2.5,1.44,2.51,0,0,.42,2.42.42,2.42l-.26.19c.02.16.19.93.16,1.07h-.26v1.55l.23.23.03.75h.55l.09.09h.33l.51.33c.15-.04.43.09.55.17.31-.03.62.08.91.12.15.15.49.49.61.66v.2c.74.48.82,1.31,1.27,2-.1.18-.35.51-.51.64.05.39-.08.85-.09,1.17-.14.25-1.07.12-1.29.15.09.21.72,1.22.6,1.46l.09.09v.08c.3.32.86.7,1,1.14h.07c.1.1.58.55.62.67l.04.7h.09v.09h2.38l.09-.09h.16c.16-.12,1.11-1.04,1.18-1.09.82.61.93,1.81,2.16,1.37l.14.14c.59,0,1.15.1,1.58-.52.09,0,.39,0,.47.05-.25.17-.15,1.24-.17,1.49h.55l.6.52c.42.04.83-.05,1.17-.09l.09-.09h.55v-.17c.19-.05.44.19.62.18v.93h.39l.34.34h.75c.27-.34,1.02-.59,1.44-.6.07-.1.3-.23.41-.28v.37h.56l.09.09h.78c.13-.08.4-.22.55-.17l.48-.48.13.13h.67c.02.41.18,1.01.46,1.28v1.16c.4-.08,1.04.1,1.36.33,0,0,.83,0,.83,0v1.14c.2.12.48.68.58.88h.24l.09.09c.11-.02.3.01.39.09.31.04.76-.04,1.01-.24v.12l.09.09v.13l-.09.09v.74l.09.09v.09c.38.53,1,.73,1.62.79.21.08.69.24.92.19l.02.98.17.17v.09l.56.55h.2c.56.48,1.82.2,2.43-.23,0,0,1.02-.04,1.02-.04v-.09h.09v-.34h.57s.32-.33.34-.32c.08.12.2.38.16.53l.09.09v.55h.96l.06.05v.55h.09v.09h1.21l.52-.52v.42h.68v.26h.09v.09h1.02v.21l.17.18v.47h1.34v.42h1.93v-.09h.09v-1.03h.46l-.19.36.35.35v.55c.13,0,.66-.04.76.08v.27s.66-.01.67.02c0,0,.37.56.37.57.13,0,.39,0,.49.09.06,0,.2,0,.24.04v.27l.64.64h.16c.08.04.21.33.25.41.07.11.64.46.75.54h1.51l.41.41h.67v1.01h.09v.09h.38c.24.23.63.85.93,1.1h.09l.09.09h.21v.38s.65.64.65.64h.08l.09.09,1.37-.02c.12.1.38.27.52.34v.22s.89.81.89.81h.04v.12l.55.55h.68c.29-.13.71-.34,1.04-.34v.42h.55l.09.09h.09l.09.09h.12c.18.19.18.69.16.93h.56l.09.09h.82l.52-.52h.34l.06-.06.48.48h.22v.17h.09v.09h.09v.09h1.68v-.09h.17v-.63l.08-.08.18.17c.21-.2.56-.65.9-.59v.17h.25v.26h1.08v.88l.09.09v.55c.34-.05.93.04,1.2.27l.27-.27h.63v-.58l.08.08h.2v.25h1.68v-.09h.09c0-.25-.04-.89.16-1.09l1.55-.02v-.09h.09v-.08h1.02l.17.33h.24l.09.09h.83l.23-.23.11-.02.34-.34.21.42h.25l.09.09h1.29v-.09h.09v-.1h.42v-.09c.32.06.7-.18.94-.34h.78l.25-.25c.16.17.16.63.15.84h.09v1.22l1.13-1.14h.39v.33h.09v.09h1.67l.08.08c.12,0,.67.04.75-.07.04.07.09.14.14.21v.56c.06,0,.74-.02.76.04v.05h.17v.26h1.1v.23h1.21l.09-.09h.76l.17-.17h.4v.35c.31.03,1.2-.03,1.47-.09l.09-.09h.32l.22.43h.9l.4-.4v.38s1.18,0,1.19,0v.15l.09.09v.55c.15,0,.67-.04.78.09l-.29.29.95.95c.1,0,.42.03.52.02.09.16.29.42.46.5-.07.29.14.77.29,1l.28.15c.08.04,0,1.64.03,1.7l1.21-1.21h.08v.03l.06.06-.23.23v1.29h.09v.09h.14l-.34.34h1.68l.17.17h.81v.08h.07v.27h.47l.21.22v.63h.47l.15.15-.13.24c.21.27.34.81.28,1.14h1.21l.09-.09h.31l.5.49h.97v.16h.55l.42.42.26-.26.15.15v1.82l.87-.46.28.28h.52l.5.5h1.19l.17.17h.84s.63,0,.67,0l.16-.16h1.51v-.55l.09-.09v-.13h.51v-1.21l.07-.07h.03v-.03l.35-.35v-.75l-.06-.06.3-.3-.35-.35h0v-.75l-.51-.51v-.48c.16-.19.28-.22.53-.19v.17h2.01v-.59h.57l.09-.09h.09l.51-.51h.17s.15-.16.18-.16c.13.1.76.07.92.07.52-.67,1.58-1.07,2.41-.93,0-.08-.02-.54.03-.6.28-.07.82-.22,1.15-.16.09-.08.32-.09.43-.08v.17c.25-.02.75,0,.94.17,0,0,1.16,0,1.16,0v-.51h.08s.03,0,.03,0v.21l.56.55h1.46v-.31s.49-.49.51-.5c.03-.35.13-.96.09-1.38-.12-.16-.09-.8-.09-.99-.53-1.74-.61-3.33-.6-5.23h0s0-.01,0-.02h.91l-.52-.53v-1.28l-.93.14c0-.38-.22-.78-.27-1.16.04-.27-.13-.6-.09-.87-.13-.14-.06-.47-.11-.64h.63l-.73-.73c-.81-6.33-2-12.7-3.91-18.81h.26c-.15-.36-.64-1.33-.52-1.73h-.2c-.49-1.85-.99-3.5-1.64-5.26-.04-.28-1.28-3.64-1.22-3.86.07,0,.03-1.11.04-1.15h-.09v-.1h-.55c-6.12-16.66-9.44-32.68-5.29-49.79h-.05c.41-1.88,1.18-4.44,1.67-6.29l.12-.12c.13-.82.56-1.79.83-2.59.04-.57.62-1.44.68-1.99.19-.47.58-1.17.74-1.66.04-.23.11-.58.3-.73l.03-.11h.31c-.12-.93.37-1.6.7-2.41.36-.62.61-1.71,1.09-2.27v-.26l.17-.17v-.09l.09-.09c-.06-.21.11-.39.25-.51v-.22l.91-.91-1.27-.42.06-.06v-.17l.09-.09v-.09c.3-.22.21-.62.42-.84-.02-.06.07-.28.09-.34h.09v-.25h.09v-.09l.09-.09c.13-.61.57-1.28.84-1.85.52-.74.55-1.4,1.11-2.19v-.09h.09l.09.09v-.09l-.09-.09c-.02-.16.15-.32.25-.42l.09-.33c.13-.14.34-.39.34-.6.09-.15.31-.5.34-.68h.09c.04-.08.26-.55.34-.59v-.09c.28-.37.51-.84.68-1.27h.09v-.09l.17-.25v-.09c1.44-2.22,2.88-4.77,4.8-6.7h.09l-.05-.03.84-.71c.18-.47.48-1.09.65-1.44h.4v-.69c.2-.29.39-.68.58-1h.06c.05-.09.19-.3.28-.35v-.08c.04-.09.27-.31.34-.38v-.08c.4-.65.93-1.3,1.39-1.91.27-.49.73-1.11,1.15-1.48v-.13c.25-.09.35-.4.5-.58h.08c.51-.8,1.22-1.63,1.88-2.31v-.09c1.33-1.33,2.59-2.88,3.92-4.25h.2v-.6l.2-.1c0-.13-.02-.44.09-.54,0-.36.12-.79.36-1.05.06-.43.35-.93.6-1.27v-1.62h-.53v-.77l-.71.71-.61-.62.61-.58h-1.74l-.08-.08.61-.61h.16l-.09.09h.8v.08h.96v-.08h1.04v-.55h.05s.45-1.3.45-1.3h-.4s-.09,0-.09,0v-.95l-.5.5v-.18l.87-.87h-.34l.31-.31v-.11l.09-.1v-.15l.17-.09c.08-.69.66-4.75.56-5.35h-.55s-.04-.03-.06-.04l.16-.16h.47v-.09h.09v-1.09l.12-.12v-1.71l-13.86,2.63ZM626.64,824.04v-.79s0,0,0,0l.13.77s-.09.02-.12.02ZM640.84,737.51l.08-.13c.05.02.13.08.16.13h-.25ZM672.66,694.05h-.03l.03-.05v.05ZM672.66,695.15h-.09l-.08.09h-.09l.24-.25c.02.06.02.12.01.16ZM672.28,694.91l.15-.15c.05.02.1.04.15.05.02.02.03.06.04.09h-.34ZM656.07,738.74l-.09.09c0,.27-.04,1.56.09,1.78.03.08-.15.8-.17.9v.71c.16.21.19.56.17.82l-.17.17v.58l-.36.3h-.02c-.09.09-.43.43-.53.53,0-.21-.02-1.01.05-1.2h.13v-.15l.25.25.32-.32v-.58l-.51-.13c.13-.8.23-1.99.45-2.73l.09-.09v-1.08l-.38-.38h.56v-.34l.31.31s-.15.48-.18.48c0,.02,0,.07,0,.09h0ZM655.49,756.76c.03.06.12.22.12.29-.04.07-.09.45-.11.53.02-.2.03-.43-.01-.82ZM655.47,756.54c-.05-.19-.02-.75-.04-.95-.05-.39.04-.81.12-1.25.05.63-.09,1.59-.09,2.21ZM655.25,751.17s-.12-.19-.1-.2h.79s.06.14.05.2h-.73ZM654.98,749.38c-.02-.21-.02-.46-.02-.71.09.08.29.6.34.71.23.31.44.81.49,1.19l-.74-.74v-.46h-.08ZM654.89,745.13h-.16v-.13h.24v.05l-.08.08ZM648.95,733.52v-.02c.31-.2.52-.67.84-.84v.64l.17.17c-.12.06-.24.16-.35.31h-.9v.57l-.17-.17v.62l-.35-.35c.3-.23.46-.7.76-.93ZM652.61,738.2c-.19.27-.71.59-1.01.71l-.03.05h-.22s-.09.09-.09.09c-.21-.08-.73.22-.9.32-.45.09-.84.49-1.09.84-1.17.71-2.35.55-3.32-.24h-.33l-.09-.09s-.82.04-.85-.02c-.22-.09-.66-.22-.89-.13,0-.03-.66-.02-.68-.02l-.09.09h-.34l-.09.09h-.18l-.09-.09h-.05c-.03-.07-.21-.36-.17-.43.12-.16.09-.78.09-.97l-.08-.08c.32.25,1.4.19,1.78.19v-.45c.77-.69.67-1.03,1.41-1.54l.15.15.27-.27h.45v-.44c.25-.18.63-.45.92-.56.1-.16.67-.73.83-.83h.11v1.26h-.43v.42h-.17v.23l-.38-.38-1.41,1.41.7.37h0c.14.27.49.73.72.91h.33l.17.17c.19.02.68,0,.84-.09l.09.09h.33l.26.26h1.21v-.59c.88-1.18,1.67-1.77,3.06-2.19l.09-.09c.46.02,1.04-.04,1.44-.29l-.08.08.17.17c.02.13,0,.38-.1.48l.1.1v.88h.08v.25c-.17-.01-.51,0-.66.09-.48-.05-1.33.07-1.79.09ZM664.89,811.15v-.26l.04-.04.04.04v.09l.05.05-.13.13ZM671.91,824.75h-.27l.11-.14v-.1s.02-.03.04-.04h.09l.04-.04v.32ZM660.7,790.33c.14.16,1.09,1.02,1.11,1.23.35,1.21.5,3.18.42,4.45h.46c.82.62.9,1.56,1.15,2.44.23.67.6,1.58.81,2.26.17.18.29.59.24.83l.23.23c.19,1.76,1.54,2.35,2.69,3.1h.12v.26h.17v.21l.09.09v.33c.53.74.87,1.67,1.22,2.51,0,.05.27.52.3.57v.67h.17c-.07.77.16,1.68.4,2.46.03.05.19.36.19.41.05.08-.24.55-.27.62l.36.36v.42l.17.17s.11.39.09.42l.02.02c.06.14.08.42.07.57l.08.12c-.05.41.12,1,.09,1.41l.09.09v.06h-.78l.96.96v.38h.09v.51h.09c-.05.48.46.92.35,1.42l-.24.24.15.15v.09s-.23.13-.25.11v-1.06l-.42.42v-.79l-.72.73v-.15l-.09.09v-.09l-.38.38-.18-.18v.26l-.17-.17v.3l-.21.07-.37-.19v.39c-.29,0-.5,0-.88-.05l-.12-.12h-.33l-.09-.09c-.4.05-.83-.2-1.13-.42v-.42h-.26v-.03l-.08-.04c.49-.62.07-1.52.16-2.23h-.51s-.25-.39-.27-.4v-.07h0v-1.22h-.14l-.13-.13c-.01-.28,0-.67.16-.91-.02-.27,0-.81.19-1.02-.11-.16-.24-.49-.19-.69l.09.09v.13h.13l.13.13v.39h.42l1.09,1.92v-.96l.06.06v-1.02h.03v-1.21s-.05-.05-.05-.05l-.03-.33h-.09v-.6h-.08v-.32h-.08v-.25h-.14l-.03-.26h-.05l.91-.91h-1.12v-.09h-.07v-.17h-.09v-.32l.06-.06-.06-.06v-.69l1.3-1.3h-1.21v-.09h-.14l.59-.59h-.84l-.62-.62v-.05h-.05l-.62-.62v-.13h-.25v-.03l-.09-.09v-.18l.2-.2h.34l-.17-.17.5-.5h-1l-.28-.29v-.22h-.09v-.09h-.02l.03-.03-.09-.09v-.12h-.12l-.03-.03v-.39h-.06l.84-.84h-.96v-.44l.54-.54h-.71v-1.16l-.09-.09v-.17l-1.21-1.21.67-.68h-1.2v-1.21l-.27.27v-.26l-.42.22v-.15l-.09-.09v-.63h-.17v-.34h-.24v-.58h-.27l-.4-.76h-1.44v.2c-.04-.08-.03-.3-.03-.38-.16-.25-.41-.77-.33-1.08h.08l.29.29v-.29h.58l-.1-.38h.02v-.96h-.28c-.06-.1-.06-.34-.06-.46-.29-.24-.5-.8-.51-1.18l-.09-.09v-.16l-.17-.17v-.47h.21l.46.47v.04c.51.04,1.49-.07,1.97-.1l.02.02c.07-.03.53.15.61.17-.25.26-.25.97-.23,1.3ZM658.99,782.82c.25.59.6,1.4.7,2.05l.03.03c.08.14.06.72.06.88h.19c.12.3.39.81.6,1.06h-.82l.04.08h-.48l-.02.02h-.2v.07h-.8l-.13.13v-.46h-1.68v.09h-.09v.13l-.14-.55h0v-.17l-.17-.17v-.33c-.2-.15-.25-.51-.4-.71v-.17l-.09-.09v-.23l-.26-.2c.04-.17,0-.4-.08-.55.02-.5.17-.96.05-1.58l-.14-.14c.04-.07-.2-.49-.23-.56-.13-.29-.2-.8-.36-1.06.05-.24-.06-.63-.2-.83-.05-.4-.28-.93-.45-1.29l.06-.06v-1.21h-.17c-.06-1.28-.27-2.6-.5-3.87l.5.5v-.54h.08v-.4h.01c.19-.01.42.03.53.2.23.42.5.97.65,1.42h-.47v1.68h.09v.09h.44c.39.76.84,1.76,1.34,2.44v.12l.09.09v1.67l.09.09v.09c.77.73,1.65,1.47,2.34,2.25ZM658.01,730.56l.15-.3v-.03l.02-.02v.25s-.16.1-.18.1ZM659.47,726.54v1.21l-.09.09v.26l-.17.25c.03.13-.05.3-.09.41-.1.23-.39.6-.59.76.02.14-.04.34-.09.47h-.19c.18-.61.78-1.49.42-2.14-.02-.28.05-.63.18-.87-.07-.41.14-.9.24-1.28l.11-.11v-.09l.09-.09v-.58l.4-.4v1.38l.21-.22c.06.05-.41.89-.43.94ZM660.27,721.95v.71h-.09v.34h-.34c.05-.08.05-.27.05-.36l.02-.02.15-.71h.25l-.04.04ZM662.04,718.8h-.16v.09h-.09v.63l-.03.03h-.23v.23l-.12.12h-.05v.05l-.78.78h.44v.22l-.03.03h-.54v.54l-.39.38v-.02s.09-.09.09-.09v-.34l.09-.09v-.25l.18-.18v-.08l.19-.19c-.05-.31.14-.42.16-.84l.08-.08v-.22h.35v-.31l.48-.48v-.12h.26v-.09h.09v-.06h0v.32ZM667.3,714.64l-.09.09.09.09-.09.09v.17l-.09.09-.09-.09h-.09v-.25l.09.09v-.17l-.09-.09v.09h-.09v.09h-.09v-.09h.09l-.09-.17.09-.09h.17v.17l.09-.09-.08-.08h.08v-.1l.09.09h.09l.09.09h-.17v.09h.09ZM667.79,713.47h-.09l-.09-.09-.09.09c-.02-.07.06-.2.09-.25h.09v.09h.09v.17ZM667.8,712.89l-.17-.17-.09.09v-.09h.17l.09.09v.09ZM670.23,705.91l-.09-.09h.09v.09ZM670.22,705.74v-.09h.09l-.09.09ZM673.84,701.12h-.09v.09h-.09v-.09l.09-.09h.17l-.09.09ZM673.92,700.95v-.33h0c.02.05.11.27.09.33h-.09ZM674.17,700.39l-.03.06s0-.06.02-.09h.02v.03ZM674.48,700.62l-.09-.09v-.09l-.15-.15v-.02h.06c.03.07.11.21.17.25v.09ZM673.33,701.02l-.08.08v-.22l.08.15ZM671.16,704.56v.09l-.25-.17-.09.09h-.09v.09h-.09v-.09l.09-.09h.17c.05.02.19.1.25.08ZM665.95,713.63h-.09v-.09l.09.09ZM666.47,710.01v-.05l.06.06h-.06ZM678.91,678.72h.31l.05.05v.12h.12l.28.28h-.54v-.26h-.09v-.09h-.24l.1-.1ZM675.77,698.36h-.02l.02-.02v.02ZM676.13,691.92l-.03-.03.05-.05s-.01.06-.02.09ZM676.15,691.81l-.08-.16.19-.19c-.05.11-.08.23-.11.35ZM683.41,680.34v.26l-.09.09v.22h-.26v1.21h-.1v.25h-.68v.55l-.09.09v.13h-.18v.47c-.17.13-.25.48-.43.6.04.24-.21.47-.37.62-.06.17-.25.45-.4.56-.02.49-.48,1.21-.68,1.66.03.19-.11.42-.25.54,0,.45-.14,1.33-.09,1.8h.09v.06h-.08v.22h-.11s-.22.16-.23.16c-.33-.05-.63.12-.94.09l-.09.09h-.26l-.09.09h-.42l-.09.09h-.72v.09h-.09v.47c-.21.18-.39.41-.51.67l-.14-.14c0-.11-.04-.69.07-.77h.11v-.02h.36l-.36-.23v-1.59l.06-.06v-.25l.17-.17v-.09l.05-.05.49.26v-.75l.67-.67h-.67v-.15l.07-.07v.19l.25-.25h.02v-.02l.23-.24h.61l.33.33v-.33h.01l.24.23v-.22l.03.03v-.22h.02l-.02-.02v-1.03c.05-.06.17-.15.25-.18l-.03-.03.17-.17-.02-.03s.14-.16.19-.18h.29s-.11-.12-.11-.12l1.11-.73h-.89l.11-.11h-.15l.17-.18h-1.08c0-.1.56-.61.63-.68h-.27l.6-1.17-1.47.89v-.73h-.17v-.04l-.02-.02c.13-.13.11-.55.11-.71h.09l.69.69v-1.04h.09v-.72l.62-.62.68.67v-.41l.43.42v-.23l.24.22v-.66h.36l.09.09c.16,0,.71-.04.84.1.12-.13.56-.1.72-.1.12-.06.37-.11.51-.09l.11.11v.65s-.3.31-.3.31ZM688.67,677.44l.05-.05v.19h-.05v-.14Z"/>
    <path class="cls-5" d="M205.31,404.36l.11-2.15c-21.51-1.11-44.02-2.09-66.52-3.56l-.03.63-4.95-.22v-.2c-9.45-.45-22.4-1.26-31.87-1.73l-.3,1.16c-.69.15-1.53,1.77-1.85,2.31l.76,2.21.08.04.14.53-.33.33v.78c-.21.14-.92,1.21-1.08,1.43-.04.65-.05,1.85.42,2.37,0,0,0,1.92,0,1.92l.89.59c.11.17.45.82.64.9l-.11.33,1.52,2.31h.63l.55.55v.55h1.87c.08.18.09.61.08.81l.17.17v.17l.09.09v.09s.09.09.09.12h.03l.22.22v1.32h1.1l.47.67h.34c.18.08.96.87,1.11,1.03,1.25.04,3.01-.25,4.27-.18l1.04.72c.06.22.08.69.07.91l1.48,1.49h.08c.3.28.58,1.37.54,1.77l1.44,2.34v.15c.24.22.28.8.26,1.1.47,1.06,1.25,2.76,1.09,3.94.4.52,1.65,1.39,2.21,1.75.29.62.24,2.58.23,3.27h.93v.89c.67.5,1.25,1.67,1.62,2.41.6-.12,1.39.32,1.84.43v.28l1.48,1.49h.3c.24.18,1.15.84,1.37,1.01h.86l.09.09h.07c.5.77,1.42,1.56,2.3,1.86.2-.08,3.36.43,3.66.46l.29.29h.09l1.24,1.24.45-.4c.5.24.81,2.37,1.09,2.76v1.49h1.42l.08.09h.6v.07s1.39,1.53,1.39,1.53h.09l.08.09h.97c.11.13.23.42.24.59,1.24,1.43,2.49,3.66,3.7,5.14v.5s.32.48.32.48l.03,2.21h1.4l.08.09c.4-.05,1.07.07,1.46.09l.3.3v.09c1.14,1.49,2.94,1.97,4.25,2.72v1.88h.08v.09h2.3l.22.17.11.8.71.82.04.21c-.11.37-.03,1.23.1,1.6l.04,2.05h.77c.49.7,1.09,1.92,2.02,2.08l.04.96h1.1l.46.87v1.16h.42v.59h.74v.35h.41v4.3l1.78-1.96,1.09,1.2-2,2.01h3.28v.94h1.19v.09h.56l3.28,3.58v-1.46l.03.78h1.87v.28l-.66.66h2.76l.31.33h.91v.8h.08v.09h.17v.09h.09v.09h1.65v.41h1.21l.03.03v1.78h1.25v.07h.72l.12.12-1.71,1.96h3.2v.17h.59v.42h.17v.42h.25v.6h.08v.17h.82v.09h.2v.09h.05v.85h.84v.43h2.41l1.21,1.33v2.07h.08v.33h3.18l5.56-3.16c.02-2.57.33-8.34.5-10.95h.56c.47-11.82.89-24.11,1.17-35.96h.15l.91-22.7-.17-.09c.14-5.36.75-19.61.98-25.15l-1.26-.05Z"/>
    <path class="cls-1" d="M642.18,275.75l-1.36-.89c-.68-.02-1.35-.15-2.02-.05l-.41.41c-.25.12-.9.18-1.2.14l-.33.63s-.25.12-.28.15c-.22.05-.46-.1-.67-.09v-1.02l-.05-.05c.22-.06.11-2.23.13-2.4h-1.02l-.32-.32-.14.05-.74-.75h-.42c-.24-.26-.7-.58-.93-.85-.55.08-1.11-.27-1.44-.68h-.99v-.03h-.99c-.16.21-.52.3-.77.26-.26.35-.95.81-1.35.97v.56c-.18.28-.5.76-.43,1.12-.09.29-.45.73-.68.92-.62-.09-1.24.33-1.86.25l-1.02,1.02v.5h-1.02v1.02h0s-.01,0-.01,0l-1.19,1.19v.5h-.18l-.17.18h-.93v1.1c-.15.12-.35.23-.5.35l-.33.09-.08.08c-.28-.18-.73-.25-1.01-.44-.18-.18-.59-.37-.75-.55-.73-.16-1.33-.64-1.97-.97h0v-.36l.17-.25c.04-.4.13-1.62.09-2.05l-.09-.09v-1.02h-.06c.01-.27.11-.76.17-1.03.11-.27.79-.91,1-1.12l-.74-.74v-.09l-1.11-1.1h-.26l-.18-.18h-.09c-.06-.07-.54-.51-.55-.6h-.05l-1.74-1.73v1.64h-.42c-.13.11-.73.82-.93.77l-.13-.08h-2.4v.1h-.01s-.26-.26-.26-.26h-.6s-.16-.12-.16-.13h.42v-1.02l.09-.09v-2.67h-.09v-.17h-1.07l.38-.38v-.08l.18-.17v-.58l.25-.13c.16-1.44-.1-2.89-.09-4.24h-.76v-.17h-.18l-1.01-1.02c-.29.07-.77-.14-1-.29-.34.35-1.41.31-1.84.29v1.27h-2.43l1.07.73v.79h-.87l-.09-.09h-.17l-.18-.18h-.33v-.69c-1.02.1-2.16-.23-3.19.04-.14.06-.62.05-.78.05l-.09-.09v-.08h-1.12l-.76-.76h-.26c-.1-.12-.77-.38-.85-.52h-.44l-.09-.09c-.73.07-1.63-.12-2.24-.54l-.45.45h-.09l-.09.09h-1.18v.09h-.09v.35h-2.51l1.53,1.54h-.3v.09h-.09v1.27l-.06.06-.02.36h-.52v1.02l-.09.09v.08h-.17v.14h-.25l-.43.44h-1.01v.34l-.24.24v-.76h-.87v-1.11h-.76v-1.03h-.09v-.09h-.25v-.17h-.52v-.34h-.09v-.25h-.85c-.21-.25-.84-.97-1.11-1.2h-.09s-1.02-1.03-1.02-1.03h-.09l-.09-.09h-.09l-.09-.09h-.41l-.13-.25h-.39l-.17-.17h-.5l-.17-.17c-.33.11-1.02-.3-1.29-.45l-.45.45h-1.18v.42h-1.18v.91c-.34.28-.42.28-.65.52h-1.64l-.25.25h-1.02l-.49.49c-.6-.4-1.07-.45-1.52-.98v-.59c-.99.11-2.03-.36-2.98-.52,0,0-.76,0-.76,0-.15.11-.46.21-.64.17h0v-.69c-.39.04-1.52-.04-1.86-.09l-.19-.19v-.33h-.32l-.09-.09h-.44c-.29-.27-.76-.82-1.1-1.01v-1.04h-1.36l-.86-.45-.23.23c-.19-.07-.49-.3-.62-.46-.85-.06-2.28-.03-2.66.92-.07-.05-.52.23-.59.25,0,0-.79,0-.79,0l-.08.08h-.3c-.04-.12-.92-.54-1.03-.6-.65-.02-1.76.13-2.43.08-.52-.58-1.38-.68-2.13-.5l-.85-.85h-.07v-.91l-.27-.27c.02-.36.03-1.11-.25-1.39h1.79l-2.3-2.32v-.73l.09-.09v-2.34h-.09v-.09h-1.02l-.09-.09h-.59v-.07l-.51-.51v-1.2h-.69c.06-.17-.36-.83-.43-.97v-3.47l-2.03,2.02-.46-.46h-.88v-.71c-.35-.01-1.38.1-1.62-.24-.26-.35-.27-1.36-.24-1.79h-1.02l-.09-.09h-.33l-.18-.18h-1.58l-.09.09h-.39l-.13.25h-.84v1.1l-.09.09v.09l-.34.52c.02.19,0,.46-.18.57-.12.63-.21,1.9-.17,2.54h-.08v.34h-.3c-.14-.17-.47-.48-.7-.49v-.78h-1.02l-2.44-2.43v1.38s-1.24,0-1.24,0l-.09-.09h-.76l-.83-.83-.53.53c-.55-.13-1.18.03-1.73.05l-1.2,1.19v1.3l-.33.17v.22c-.43.02-2.45,0-2.83-.09v-.18h-.26v-.34h-.09v-.09h-.96c-.23-.35-.38-.46-.56-.63v-.19c-.4-.3-1.07-.83-1.52-.89v-.74h-1.1v-1.18h-.82l-.17-.25h-.11l-.23-.15c-.03-.11-.21-.29-.29-.36v-.44l-.09-.09v-.16l-.17-.17v-.11c-.47-.57-1.09-1.07-1.39-1.69-.36-.43-.88-.77-1.41-.93v-.4l-.25-.25v-.42l-.17-.17v-.42c-.05-.06-.42-.4-.43-.47,0,0,0-2.09,0-2.09l-.84.44v-.42h-1.07s-.07-.04-.1-.06v-.62h-1.23l-.28-.28v-.27h-.18v-.34h-.09v-.09h-1.1l-.09-.09h-1.74l-.5.51h-.51c-.13-20.63-.11-51.63-.12-72.34h-.47v-61.57l-30.75-.09h0s-30.84-.18-30.84-.18l-1.03-.08-1.72-.13v.11c-16.61-.18-40.6-.39-56.97-.86v-.02c-16.59-.27-35.41-.69-52.8-1.26-.01,7.81-.69,26.21-.8,34.27h.32c-.21,10.11-.71,20.19-.8,30.26h.1s-.88,27.38-.88,27.38h-.04s-.98,33.5-.98,33.5h.18s-1.02,30.34-1.02,30.34h.4c-.19,8.39-.65,22.48-1.19,30.76h-.31s-1.53,33.49-1.53,33.49h.41s-1.27,26.65-1.27,26.65h-.34c-.42,16.23-1.23,47.53-1.72,63.74l.97.03-.08,2.83c-16.68-.54-36.93-1.07-53.63-1.75l-.35.74h-.04s-.39-.77-.39-.77c-18.38-.55-37.07-1.56-55.43-2.18-.36,8.56-.85,19.87-1.1,28.45l.16.09c-.15,4.05-.48,12.3-.65,16.37h-.18c-.4,11.83-.63,24.22-1.19,35.96h-.46c-.05.97-.67,11.28-.63,11.9l-2.46,1.4-3.54-1.01v.77h-.09v1.45l-1.04,1.98h1.52l-1.22,1.21h2.44v.18h.33v.09h1.36l.34.33h0c.05.02.52.98.55,1.02h.05v.6h.34v.43h.17v.26l.07.07-.76,1.46h1.28l.03.03v.22l-.02.02c.06.03,0,1.23.02,1.27h.09v.09h.09v.09h.25v.77h.25v1.18h.08v1.78l.09.09v1.95h.34v1.02h.17v.06l-.17.17v1.41l1.27,1.27v.85h.84c-.11.27.46,1.69.54,1.96h.06v1.02h1.19v.77h.66s0,1.33.01,1.37h.7l-.43.42.83.84v1.01h.6v.76h1.27l.42.42v.61h.26v.43h.26v1.36h.34v1.1c.08,0,.37-.02.43.05v.23l.5.4v.12h-.17v.84h-.17v.25h-.25v2.22h0v.24l-.19.19.09.17-1.97,1.97h1.98v.44s-.64.66-.69.65v.64l-.17.17v2.02l-.29.28.11.21-.02.04.07.07h-1.28l1.99,2v1.16h-1.82l.75.76h-.51l1.79,1.79-1.91,1.9h2.18v.77h.17v.09h.12v.31l.06-.06v.52h.18v2.62l-.46.46h2.6v.09h.34v1.35h.09v.17h.33v.09h.19v1.46h.33v.17h.26v.67h.62l.6.6v1.02h.42v.35h.17v.68h.25v.17h.18v.09h.02v.86l.25.26v.25h.25v.86h.1v.85h.04l-1.54,1.53h1.83v.28l.28-.28h.05l.17.17v2.23h.42v.3l.42.22v.4h.6v.43l.18.17v1.35h.43v.6h1.36v.35h.94l.17.17v1.19h.77v.34h1.12l2.34,1.76v1.78h.92l.76.92h.6c.44.46,1.71,1.26,2.1,1.77h1.49l.16-.16.22.22.63-.22.24.24h.33l.1.1v.34h.51v.52h.09v.09h1.36v.68h.35v1.27h.75v1.7h.93l.52.52v1.02h.78v1.61h.09v.09h.6v.09l.25.25v1.02h1.02l.09.09h.1v.34h.09v.33h.09v.09h1.11v.17h.18v.6h1.37v.67h.43v.26h.5c.11.09.3.3.34.44.04.03.23.11.26.16.03-.02.22.1.25.11v.66h.68v.52h.85l.27.27v.67h1.18l.35.35h.31l.39.25h.15v.6c.52-.07,1.48.09,1.95.32v.11h.18l.17.17h1.27l-.96.96h2.92v1.12c.8-.84,3.75-.58,4.77-.6l.17.17h.07l.44.44h.16l.09.09-.11,3.47.73-.74v.87h.75l.22.43h.57v.1h1.09c.13.26.32.55.53.75v.17l.6.59v1.27h1.21v.25h1.02l.09.09h.59l.09.09h.34l.09.09h.16l.18.18h.33v1.1h.09v.09h2.13l2.16,2.17v-1.77h.05l.09.09c.48-.04,1.12.16,1.59.07l.51.51.3-.3.22.22-.05.05,1.33,1.33v.43h.6v.94h1.28c.14.13.26.38.41.49l-.56.56.75.74v1.1h.09v.09h2.09l.19.28v.41c.12.1.84.91,1.02.88v.47h.85v.5h.95v.68c.32.02,2.23-.11,2.44.19.3.08.79-.03.73.23.29-.02,1.4.01,1.64.09,0,.05.89.89.91.93h.42v.76l.09.09v1.02h1.02l.09.09h1.4l.09-.09h.09l.23-.24.17.17h2.34v-.09h.59v-.09h1.04l.36.36v.41h.09v.09h1.44l.09.09h2.34v-.68c.22-.07.65.17.83.27l.27-.27h.6v-.51l.68-.68v-.09l.09-.09s.03-1.26-.05-1.22l.91-.91v-.17l.17-.17v-1.17h.87v-1.65l1.36,1.35v-2.51c.09-.06.34-.05.44-.05.45-.23,1.21-.89,1.55-1.28v-.08l.75-.74-.22-.22.4-.4h.35v-.09h.25v-.86h.43v-.59l.32-.32-.25-.25.2-.19v-.21l.25-.33v-.16l.46.45h2.34v-.52h.17v-.7h1.88v-1.19h.79l.09-.09h.17l.17-.17h.09l.09-.09h.47l.13-.25h.67v-.85l.5-.5v-.09l.09-.09v-1.41l-.09-.09v-.39l-.2-.11c-.13-.7-.83-1.3-1.48-1.56v-.45l.51-.51c-.04-.24.06-.42.09-.61h.08v-.6h.18v-1.43l.09-.09v-.35l.17-.25v-.11c.26-.14.67-.25.99-.21l.2-.2,1.32-.23v-1.19h.44v-.99l.26-.26h.39l.72-1.36v-1.14c-.71-.58-1.23-1.29-1.09-2.26l.42-.42h1.7l-.49-.94h.31v-2.83l1.19,1.19v-2.68h.68c0-.32,0-1.82-.02-2.1l.54-.28c0-.05-.02-.71.04-.73h.22l1.27-1.27c-.01-.52.05-1.17.23-1.66l-.04-.19h.08v-.43h.76v-1.1l.75-.74-.03-.03h1.1v-.17h.09v-1.02l2.41-2.42h-1.99s.03-.77-.02-.79h0c.49-.04,1.07.1,1.49.37.29-.23.89-.35,1.25-.29l.09-.09h.33l.93-.94h1.19v-.09l.37-.19.71.71h2.41v-.17h.42v-.89c.54-.18,1.1-.66,1.43-1.09l.04.04h1.27l.18.18h.96l.08.08h.17v.33h.67v.25h.09v.73l1.29-.44v.06h2.34l1.02-1.02c-.03-.25.03-.71.08-.93h.41v-.09h.09c.06-.44-.23-2.06.34-2.29-.08-.58.16-1.14.6-1.51v-.76l.77-.77h.02s.22-.21.22-.21h.64s.73.73.75.76h.16v.68h.09v.09h1.95c.18.18.59.56.79.76h.06l.09.09h1.18l.04.08h.12l.13.25h.65v.83h1.36l.33.33v.69h.85l.42.42v.52h1.26l.22.42h.65l.09.09h1.2v.34c.44.02,1.76-.05,2.17.06l.12.12h2.51v-.76l.07-.07h1.12l.04-.04.11.11h1.57l.14-.14.24.24h.09l.55.54v.31h.26v1.21c.16-.05,2.44-1.37,2.59-1.21l.69-.68c.13.02.82-.07.89.09h.13l1.61.55v-.83l.13-.05.21.4h.39l.17.17h.26l.26.26c.48-.09.86.15,1.15.52.39.06,2.25.12,2.71.09l.05-.09,2.11,2.12.75-36.37c-.01-.35.03-1.25.05-1.61h.19l.71-1.37c-.04-.25.05-.52.26-.66v-.09h.52v-.51l.35-.35h.48l.35.36c.22-.25,1.09-.19,1.38-.19.19-.27,1.59-.16,1.87-.17v-1.02l.17-.17c.05-.62-.1-1.63-.09-2.24l-1.27-1.27h-.09l-.09-.09h-.25l-.25-.25h0v-.77h-.18v-.25l-.09-.09v-.09l-.25-.25v-1.74h.09v-.17h.09v-.5h.6v-.42h2.41l-2.14-2.15s.1-.08.14-.1v-.04l.16-.16-.09-.09.36-.36v-.94h.51v-.34h.34v-1.1h.85v-.09h.09v-.86l.28-.28h-.28v-.31l.09-.09v-2.41h-.17v-.43h-.09v-.09h-.35v-.39h.25v-2.34l-.09-.09v-.09l-.17-.17v-2.58l-.79.79v-.1h-1.02l-.09-.09h-.42v-.6h-.86v-.34h-.18v-2.42l-2.26,2.26v-.1h-.49c-.06-.04,0-1.38-.02-1.43h-.86v-.78h-.85c.05-.37-.08-1.02-.09-1.36l-.26-.26c.05-.41-.07-.74-.09-1.06h1.12l-2.06-2.07c.05-.65-.1-1.74-.09-2.37l-.17-.17v-1.02h-.48l.11-.31c-.2-.28-.38-.83-.31-1.17l-.17-.09v-1.48h-.51l-.09-.09v-.09l-.09-.09v-1.02h-.59v-.25l.3-.3-.41-.41v-.77l-.09-.09v-.09l-.09-.09v-.26l-.6-.6v-.76h-1.1l-.09-.09h-.09l-.09-.09h-.26v-2.7l-1.39,1.39-.06-.06h-.1l-.69-.68h-.53l-.09-.25h-.22l-.25-.25v-1.02h-.43v-.26h-.93l-.34-.34h-.26l-.17-.17h-1.29v-.57h-1.01v-.34h-.25v-.17h-.59v-1.9l-1.42,1.41-.25-.13v.37l-.25.25h-.12c-.05.08-.23.37-.31.42h-.09l-.17.17h-1.15l-.27-.27v-.16h-.09v-.09h-.16l-.14-.13-.14.13h-1.3v-2.76l-1.59,1.59h-1.24v-.25h0v-.25h-.09v-.44h-.06l.53-.52h-1.82v-.5c14.02.59,43.07,1.16,57.21,1.27.52-19.42,1.18-50.7,1.44-70.05h.28s0,.04,0,.04c28.68.35,61.48.96,90.17.78h0s33.6-.01,33.6-.01h1.59v-.02l9.02-.06,15.54,26.18,10.46-1.68,2.05,3.21,20.72-12.91c-1.8-3.04-5.5-9.19-7.33-12.18l-4.54,2.69-11.72-19.39,3.71-2.26-.2-17.32-5.93-.09c-.17-8.02-.24-19.33-.34-27.35,1.97.02,6.62.02,8.65.02v-3.87c7.98.05,21.71-.13,29.58.02-.06-9.18-.25-20.93-.35-30.09,8.45-.37,16.86,0,25.25-.72l-.63-35.89ZM360.33,475.57h-1.11v.17h-.08v-.46l.69.03v-.03s.49.02.49.02v.27ZM362.32,475.56l-.21-.21h.41s-.2.21-.2.21Z"/>
    <rect class="cls-9" width="983.7" height="934.06"/>
  </g>
</svg>