<?xml version="1.0" encoding="UTF-8"?>
<svg id="Layer_2" data-name="Layer 2" xmlns="http://www.w3.org/2000/svg" viewBox="0 0 211.6 211.6">
  <defs>
    <style>
      .cls-1 {
        fill: #fff;
      }

      .cls-2 {
        fill: #24723f;
      }

      .cls-3 {
        fill: #1e5633;
      }
    </style>
  </defs>
  <g id="Layer_1-2" data-name="Layer 1">
    <g>
      <circle class="cls-2" cx="105.8" cy="105.8" r="105.8"/>
      <path class="cls-1" d="M105.8,205c-54.7,0-99.19-44.5-99.19-99.19S51.11,6.61,105.8,6.61s99.19,44.5,99.19,99.19-44.5,99.19-99.19,99.19ZM105.8,11.1C53.58,11.1,11.1,53.58,11.1,105.8s42.49,94.71,94.71,94.71,94.71-42.49,94.71-94.71S158.02,11.1,105.8,11.1Z"/>
      <polygon class="cls-3" points="173.77 77.46 122.53 77.46 122.53 49.34 37.15 49.34 37.15 82.66 25.15 91.24 37.15 100.26 37.15 133.78 88.39 133.78 88.39 161.52 173.77 161.52 173.77 122.1 169.7 119.23 173.77 116.51 173.77 77.46"/>
      <polygon class="cls-1" points="160.45 119.12 168.54 113.71 168.54 82.7 93.63 82.7 93.63 100.44 145.9 100.44 145.9 110.8 127.7 110.8 127.7 128.55 145.9 128.55 145.9 138.47 93.63 138.47 93.63 156.29 168.54 156.29 168.54 124.81 160.45 119.12"/>
      <polygon class="cls-1" points="117.3 72.32 117.3 54.57 42.39 54.57 42.39 85.36 34.01 91.34 42.39 97.64 42.39 128.55 117.3 128.55 117.3 110.73 65.02 110.73 65.02 100.46 83.22 100.46 83.22 83.04 65.02 83.04 65.02 72.32 117.3 72.32"/>
    </g>
  </g>
</svg>