<?xml version="1.0" encoding="UTF-8"?>
<svg id="Layer_2" data-name="Layer 2" xmlns="http://www.w3.org/2000/svg" viewBox="0 0 217.14 217.14">
  <defs>
    <style>
      .cls-1 {
        fill: #649e43;
      }

      .cls-2 {
        fill: #fff;
      }

      .cls-3 {
        fill: #2e6b44;
      }
    </style>
  </defs>
  <g id="Layer_1-2" data-name="Layer 1">
    <circle class="cls-1" cx="108.57" cy="108.57" r="108.57"/>
    <circle class="cls-3" cx="108.57" cy="108.57" r="101.05"/>
    <polygon class="cls-1" points="176.54 80.23 125.3 80.23 125.3 52.11 39.92 52.11 39.92 85.43 27.92 94.01 39.92 103.03 39.92 136.55 91.16 136.55 91.16 164.29 176.54 164.29 176.54 124.86 172.47 122 176.54 119.28 176.54 80.23"/>
    <polygon class="cls-2" points="163.21 121.89 171.31 116.48 171.31 85.46 96.4 85.46 96.4 103.21 148.67 103.21 148.67 113.57 130.47 113.57 130.47 131.32 148.67 131.32 148.67 141.24 96.4 141.24 96.4 159.06 171.31 159.06 171.31 127.58 163.21 121.89"/>
    <polygon class="cls-2" points="120.07 75.09 120.07 57.34 45.16 57.34 45.16 88.13 36.77 94.11 45.16 100.41 45.16 131.32 120.07 131.32 120.07 113.5 67.79 113.5 67.79 103.23 85.99 103.23 85.99 85.81 67.79 85.81 67.79 75.09 120.07 75.09"/>
  </g>
</svg>